<svg width="150" height="150" viewBox="0 0 150 150" fill="none" xmlns="http://www.w3.org/2000/svg">
<mask id="mask0_2636_4965" style="mask-type:luminance" maskUnits="userSpaceOnUse" x="0" y="0" width="150" height="150">
<path d="M150 0H0V150H150V0Z" fill="white"/>
</mask>
<g mask="url(#mask0_2636_4965)">
<path d="M46.4789 108.814L46.0742 117.499C46.0742 120.425 51.4775 119.205 55.4588 131.718C58.3026 137.121 60.0089 138.259 63.7332 143.077C64.7066 145.489 67.0473 147.069 69.645 147.069H80.3476C82.9453 147.069 85.286 145.489 86.2594 143.077C88.4415 137.684 91.0064 137.695 93.5658 132.292C97.8315 120.633 103.519 120.999 103.519 118.073V108.82C103.519 106.403 101.556 104.45 99.1386 104.45H50.8376C48.4258 104.45 46.468 106.408 46.468 108.82H46.4789V108.814Z" fill="#F0745F"/>
<path d="M87.3371 140.413C85.8331 139.812 84.1323 140.539 83.5253 142.043C83.0222 143.295 81.7479 144.143 80.3533 144.143H69.6508C68.2562 144.143 66.982 143.301 66.4788 142.043C65.8773 140.539 64.171 139.812 62.667 140.413C61.1631 141.015 60.4357 142.721 61.0373 144.22C62.4428 147.731 65.8226 149.995 69.6508 149.995H80.3533C84.1761 149.995 87.5558 147.725 88.9668 144.22C89.5684 142.716 88.841 141.015 87.3371 140.413Z" fill="#3A3A3A"/>
<path d="M121.742 125.319C120.949 121.217 118.417 117.663 114.807 115.568C115.464 115.032 116.082 114.436 116.645 113.785C119.418 110.564 120.648 106.298 120.014 102.093C118.986 95.2621 116.076 88.8745 111.603 83.6299C108.25 79.7032 104.138 76.5368 99.5274 74.3109C105.166 68.2952 108.628 60.2122 108.628 51.3362C108.628 35.9742 98.2696 22.9856 84.1763 18.9824C86.0959 16.691 87.1459 13.8253 87.1459 10.801C87.1459 4.84541 82.3005 0 76.3449 0C73.9386 0 71.6909 0.782047 70.0065 2.20395C68.1471 3.77352 67.1189 5.97747 67.1189 8.41111C67.1189 10.0299 68.4315 11.3424 70.0502 11.3424C71.669 11.3424 72.9815 10.0299 72.9815 8.41111C72.9815 7.71657 73.2495 7.1314 73.7855 6.68295C74.4144 6.15247 75.3277 5.86262 76.3504 5.86262C79.0739 5.86262 81.2942 8.07751 81.2942 10.8065C81.2942 12.655 80.5778 14.3886 79.2707 15.6956C77.9637 17.0027 76.2301 17.7191 74.3871 17.7191C74.316 17.7191 74.2449 17.7191 74.1738 17.7301C56.0226 18.1785 41.3934 33.0866 41.3934 51.3417C41.3934 60.2177 44.8552 68.3006 50.4936 74.3164C45.8833 76.5422 41.7707 79.7032 38.4183 83.6353C33.9448 88.88 31.0354 95.2676 30.0072 102.098C29.3728 106.304 30.6033 110.564 33.376 113.791C33.9393 114.447 34.5573 115.038 35.2136 115.574C31.5987 117.674 29.072 121.223 28.2791 125.324C27.4806 129.437 28.5033 133.692 31.0846 136.99L37.3574 145.007C39.8895 148.244 43.745 149.989 47.6498 149.989C49.8647 149.989 52.1014 149.426 54.1249 148.261C59.7086 145.034 62.104 138.094 59.6922 132.117L55.8859 122.678C55.6343 122.049 55.3335 121.442 54.9945 120.862H76.4816C78.1004 120.862 79.4129 119.549 79.4129 117.931C79.4129 116.312 78.1004 114.999 76.4816 114.999H49.4272V108.825C49.4272 108.032 50.0725 107.381 50.8709 107.381H99.1719C99.9649 107.381 100.616 108.026 100.616 108.825V115.404C97.7063 116.995 95.4148 119.555 94.157 122.678L90.3507 132.117C87.9389 138.094 90.3343 145.04 95.918 148.261C97.9414 149.426 100.173 149.989 102.393 149.989C106.298 149.989 110.148 148.244 112.686 145.007L118.958 136.99C121.54 133.692 122.562 129.437 121.764 125.324H121.742V125.319ZM74.9996 23.5763C90.3069 23.5763 102.765 36.0289 102.765 51.3417C102.765 66.6545 90.3124 79.1071 74.9996 79.1071C59.6867 79.1071 47.2341 66.6545 47.2341 51.3417C47.2341 36.0289 59.6922 23.5763 74.9996 23.5763ZM35.7823 102.968C37.4613 91.8222 44.8935 82.6072 55.3281 78.593C60.8626 82.6017 67.6603 84.9643 74.9996 84.9643C82.3388 84.9643 89.1366 82.5963 94.6711 78.593C105.106 82.6127 112.538 91.8222 114.217 102.968C114.594 105.483 113.861 108.032 112.199 109.962C110.728 111.669 108.671 112.73 106.451 112.954V108.819C106.451 105.844 104.657 103.279 102.098 102.142V98.5872C102.098 96.9684 100.785 95.6559 99.1665 95.6559C97.5477 95.6559 96.2352 96.9684 96.2352 98.5872V101.519H53.7749V98.5872C53.7749 96.9684 52.4624 95.6559 50.8436 95.6559C49.2248 95.6559 47.9123 96.9684 47.9123 98.5872V102.131C45.3419 103.263 43.5427 105.833 43.5427 108.819V112.954C41.3223 112.73 39.266 111.669 37.7949 109.962C36.1323 108.032 35.3995 105.483 35.7769 102.968H35.7823ZM51.1772 143.18C48.1037 144.952 44.1442 144.187 41.9567 141.392L35.6839 133.375C34.1471 131.411 33.5401 128.885 34.0159 126.435C34.4917 123.99 36.0011 121.868 38.1613 120.621C40.3215 119.374 42.9083 119.128 45.2654 119.938C47.6224 120.753 49.5092 122.541 50.4389 124.854L54.2452 134.293C55.5687 137.586 54.2562 141.403 51.1827 143.175L51.1772 143.18ZM114.315 133.375L108.042 141.392C105.855 144.187 101.89 144.952 98.8219 143.18C95.7484 141.408 94.4359 137.591 95.7594 134.299L99.5657 124.854C100.495 122.541 102.382 120.753 104.739 119.938C105.653 119.626 106.599 119.467 107.545 119.467C109.038 119.467 110.52 119.856 111.843 120.621C114.004 121.868 115.513 123.985 115.989 126.435C116.464 128.879 115.852 131.411 114.315 133.375Z" fill="#3A3A3A"/>
<path d="M90.1759 119.992C90.7228 119.445 91.0345 118.691 91.0345 117.92C91.0345 117.148 90.7228 116.394 90.1759 115.847C89.629 115.3 88.8743 114.988 88.1032 114.988C87.3321 114.988 86.5774 115.3 86.0305 115.847C85.4836 116.394 85.1719 117.148 85.1719 117.92C85.1719 118.691 85.4836 119.445 86.0305 119.992C86.5774 120.539 87.3321 120.851 88.1032 120.851C88.8743 120.851 89.629 120.539 90.1759 119.992Z" fill="#3A3A3A"/>
<path d="M66.4898 65.4621C68.5789 68.0434 71.6798 69.52 74.9994 69.52C78.319 69.52 81.4143 68.0379 83.5089 65.4621C84.5261 64.2042 84.3347 62.3612 83.0769 61.344C81.819 60.3268 79.976 60.5182 78.9588 61.7761C77.9854 62.9792 76.5416 63.6683 75.0048 63.6683C73.4681 63.6683 72.0243 62.9792 71.0508 61.7761C70.0336 60.5182 68.1852 60.3268 66.9328 61.344C65.675 62.3612 65.4835 64.2097 66.5008 65.4621H66.4898Z" fill="#3A3A3A"/>
<path d="M62.1026 53.4088C62.4745 53.0369 63.0816 53.0369 63.4589 53.4088C64.0331 53.9831 64.7824 54.2674 65.5316 54.2674C66.2809 54.2674 67.0301 53.9831 67.6043 53.4088C68.7473 52.2658 68.7473 50.4119 67.6043 49.2634C64.9465 46.6056 60.6206 46.6056 57.9627 49.2634C56.8197 50.4064 56.8197 52.2604 57.9627 53.4088C59.1057 54.5518 60.9597 54.5518 62.1081 53.4088H62.1026Z" fill="#3A3A3A"/>
<path d="M84.4768 54.2674C85.226 54.2674 85.9753 53.9831 86.5495 53.4088C86.9214 53.0369 87.5284 53.0369 87.9003 53.4088C89.0433 54.5518 90.8973 54.5518 92.0457 53.4088C93.1887 52.2658 93.1887 50.4119 92.0457 49.2634C89.3879 46.6056 85.062 46.6056 82.4041 49.2634C81.2611 50.4064 81.2611 52.2604 82.4041 53.4088C82.9783 53.9831 83.7276 54.2674 84.4768 54.2674Z" fill="#3A3A3A"/>
</g>
</svg>
