<svg width="112" height="112" viewBox="0 0 112 112" fill="none" xmlns="http://www.w3.org/2000/svg">
    <g opacity="0.2">
        <path d="M32.6377 35.271H84.5094V77.854C84.5042 80.6183 83.4101 83.2675 81.4671 85.2203C79.5241 87.1731 76.891 88.2699 74.1457 88.2699H32.6377V35.271Z" fill="#E79854"/>
        <path d="M64.5596 88.27H74.1462C76.8948 88.27 79.5308 87.1706 81.4744 85.2135C83.418 83.2565 84.5098 80.6022 84.5098 77.8346V66.6411H64.5596V88.27Z" fill="#E3836C"/>
        <path fill-rule="evenodd" clip-rule="evenodd" d="M35.916 22.2529C34.856 22.2529 33.8394 22.677 33.0898 23.4317C32.3403 24.1865 31.9192 25.2101 31.9192 26.2775V30.6297C31.9192 31.6971 31.4981 32.7207 30.7485 33.4755C29.999 34.2302 28.9824 34.6542 27.9223 34.6542H23.8963C22.8414 34.6581 21.8307 35.0818 21.0847 35.833C20.3387 36.5841 19.9179 37.6018 19.9141 38.6641V38.6641C19.9153 39.7286 20.3348 40.7493 21.081 41.5033C21.8271 42.2574 22.8392 42.6835 23.8963 42.6887H27.9078C28.4332 42.6861 28.954 42.788 29.4403 42.9885C29.9265 43.1891 30.3687 43.4843 30.7414 43.8573C31.1141 44.2303 31.41 44.6737 31.6121 45.1621C31.8142 45.6506 31.9186 46.1743 31.9192 46.7034V59.1096C31.9198 59.6383 31.8169 60.1619 31.6163 60.6505C31.4156 61.1391 31.1212 61.583 30.75 61.9568C30.3787 62.3307 29.9378 62.6271 29.4526 62.8291C28.9674 63.0312 28.4474 63.1348 27.9223 63.1342H23.8963C22.8392 63.1393 21.8271 63.5655 21.081 64.3195C20.3348 65.0736 19.9153 66.0943 19.9141 67.1587V67.1587C19.9141 68.2236 20.3332 69.245 21.0796 69.9993C21.826 70.7537 22.8388 71.1794 23.8963 71.1833H27.9078C28.4328 71.1826 28.9528 71.2863 29.4381 71.4883C29.9233 71.6903 30.3641 71.9868 30.7354 72.3606C31.1067 72.7344 31.401 73.1784 31.6017 73.6669C31.8023 74.1555 31.9053 74.6791 31.9046 75.2078V87.6091C31.9059 88.6761 32.3274 89.699 33.0767 90.4535C33.826 91.2079 34.8418 91.6324 35.9015 91.6337V91.6337C36.4282 91.6362 36.9503 91.5341 37.4377 91.333C37.9251 91.132 38.3684 90.836 38.742 90.4621C39.1155 90.0882 39.4121 89.6437 39.6148 89.1541C39.8174 88.6646 39.922 88.1395 39.9226 87.6091V75.2225C39.9226 74.1551 40.3437 73.1315 41.0933 72.3767C41.8428 71.622 42.8594 71.1979 43.9195 71.1979H55.9149C56.9745 71.1992 57.9904 71.6237 58.7397 72.3781C59.4889 73.1326 59.9104 74.1555 59.9117 75.2225V87.6238C59.9111 88.1525 60.014 88.6761 60.2147 89.1647C60.4153 89.6532 60.7097 90.0972 61.081 90.471C61.4522 90.8449 61.8931 91.1413 62.3783 91.3433C62.8635 91.5453 63.3835 91.649 63.9086 91.6483V91.6483C64.4335 91.6483 64.9532 91.5442 65.4381 91.342C65.923 91.1397 66.3636 90.8433 66.7348 90.4696C67.1059 90.0959 67.4003 89.6522 67.6012 89.1639C67.8021 88.6756 67.9054 88.1523 67.9054 87.6238V75.2225C67.9054 74.156 68.3259 73.133 69.0744 72.3784C69.8229 71.6238 70.8382 71.1992 71.8974 71.1979H83.9026C84.4272 71.1986 84.9468 71.0951 85.4317 70.8934C85.9166 70.6916 86.3573 70.3957 86.7285 70.0223C87.0997 69.649 87.3941 69.2057 87.5951 68.7177C87.796 68.2297 87.8994 67.7066 87.8994 67.1783V67.1783C87.9 66.6496 87.7971 66.126 87.5965 65.6374C87.3958 65.1488 87.1015 64.7049 86.7302 64.3311C86.3589 63.9572 85.9181 63.6608 85.4328 63.4588C84.9476 63.2567 84.4276 63.1531 83.9026 63.1537H71.8974C70.8382 63.1524 69.8229 62.7278 69.0744 61.9732C68.3259 61.2186 67.9054 60.1957 67.9054 59.1292V46.7034C67.9048 46.1752 68.0076 45.6519 68.2079 45.1637C68.4082 44.6754 68.7022 44.2317 69.0729 43.8579C69.4437 43.4842 69.884 43.1876 70.3686 42.9853C70.8533 42.783 71.3728 42.6789 71.8974 42.6789H83.9026C84.9626 42.6789 85.9792 42.2549 86.7288 41.5001C87.4783 40.7454 87.8994 39.7217 87.8994 38.6543V38.6543C87.9 38.1256 87.7971 37.602 87.5965 37.1134C87.3958 36.6249 87.1015 36.181 86.7302 35.8071C86.3589 35.4333 85.9181 35.1368 85.4328 34.9348C84.9476 34.7328 84.4276 34.6291 83.9026 34.6298H71.8974C70.8382 34.6285 69.8229 34.2039 69.0744 33.4493C68.3259 32.6947 67.9054 31.6718 67.9054 30.6052V26.2628C67.9016 25.198 67.4788 24.1781 66.7296 23.4265C65.9805 22.6749 64.9661 22.2529 63.9086 22.2529V22.2529C63.3835 22.2523 62.8635 22.356 62.3783 22.558C61.8931 22.76 61.4522 23.0564 61.081 23.4303C60.7097 23.8041 60.4153 24.248 60.2147 24.7366C60.014 25.2252 59.9111 25.7488 59.9117 26.2775V30.6297C59.9104 31.6967 59.4889 32.7196 58.7397 33.474C57.9904 34.2285 56.9745 34.6529 55.9149 34.6542H43.9097C43.3845 34.653 42.8646 34.5474 42.3798 34.3437C41.8951 34.1399 41.455 33.842 41.0847 33.4668C40.7144 33.0917 40.4211 32.6467 40.2217 32.1574C40.0223 31.668 39.9207 31.1439 39.9226 30.615V26.2628C39.9188 25.1963 39.4946 24.1749 38.7434 23.4231C37.9921 22.6712 36.9752 22.2503 35.916 22.2529V22.2529ZM59.9117 59.1243V46.7034C59.9117 45.6361 59.4906 44.6124 58.7411 43.8576C57.9915 43.1029 56.9749 42.6789 55.9149 42.6789H43.9097C43.3855 42.6795 42.8665 42.7841 42.3824 42.9867C41.8984 43.1893 41.4586 43.486 41.0884 43.8597C40.7182 44.2334 40.4246 44.6769 40.2246 45.1648C40.0246 45.6527 39.922 46.1756 39.9226 46.7034V59.1096C39.922 59.6383 40.0249 60.1619 40.2255 60.6505C40.4262 61.1391 40.7206 61.583 41.0918 61.9568C41.4631 62.3307 41.904 62.6271 42.3892 62.8291C42.8744 63.0312 43.3944 63.1348 43.9195 63.1342H55.9149C56.9749 63.1342 57.9915 62.7102 58.7411 61.9554C59.4906 61.2007 59.9117 60.177 59.9117 59.1096V59.1243Z" fill="url(#paint0_linear_2815_5461)"/>
        <g style="mix-blend-mode:multiply">
            <g style="mix-blend-mode:multiply">
                <path d="M67.9062 30.6152V33.6813C67.9124 33.9315 68.0134 34.1697 68.1887 34.3471C68.3639 34.5245 68.6 34.6275 68.8484 34.6349H71.8351C70.7877 34.617 69.7892 34.1857 69.0545 33.4339C68.3197 32.6822 67.9074 31.67 67.9062 30.6152V30.6152Z" fill="#EEA575"/>
            </g>
            <g style="mix-blend-mode:multiply">
                <path d="M61.9558 26.3945C61.9558 25.6008 62.269 24.8396 62.8263 24.2783C63.3837 23.7171 64.1397 23.4018 64.928 23.4018C65.7167 23.4018 66.4731 23.7169 67.0313 24.278C67.5895 24.8392 67.9037 25.6004 67.905 26.3945V26.3456C67.9104 25.8171 67.8124 25.2927 67.6165 24.8023C67.4207 24.312 67.1308 23.8652 66.7635 23.4877C66.3962 23.1101 65.9586 22.8091 65.4758 22.6018C64.9929 22.3945 64.4743 22.285 63.9494 22.2795C62.8894 22.2685 61.8684 22.6819 61.1111 23.4289C60.3538 24.1758 59.9222 25.1951 59.9113 26.2625V30.6147C59.9101 31.6703 59.4971 32.6832 58.7613 33.4351C58.0255 34.187 57.0258 34.6177 55.9775 34.6343H61.0088C61.2664 34.6343 61.5135 34.5313 61.6956 34.3479C61.8778 34.1645 61.9801 33.9157 61.9801 33.6563L61.9558 26.3945Z" fill="#EEA575"/>
            </g>
            <g style="mix-blend-mode:multiply">
                <path d="M86.8027 37.803C86.7293 38.5837 86.3659 39.3076 85.785 39.8299C85.2042 40.3522 84.4489 40.6343 83.6703 40.6197H68.8484C68.5985 40.6197 68.3589 40.7197 68.1822 40.8976C68.0055 41.0755 67.9063 41.3168 67.9063 41.5684V46.703C67.9056 46.1747 68.0084 45.6515 68.2087 45.1633C68.4091 44.675 68.703 44.2313 69.0738 43.8575C69.4445 43.4837 69.8848 43.1872 70.3695 42.9849C70.8541 42.7826 71.3736 42.6785 71.8982 42.6785H83.7334C84.7476 42.6959 85.7323 42.3349 86.498 41.665C87.2637 40.9951 87.7563 40.0637 87.8808 39.05C87.9328 38.4924 87.8687 37.9299 87.6925 37.3987C87.5163 36.8674 87.2319 36.379 86.8576 35.9648C86.4832 35.5505 86.0271 35.2195 85.5184 34.9929C85.0097 34.7664 84.4596 34.6492 83.9034 34.6489V34.6489C84.3016 34.6575 84.694 34.7467 85.0572 34.9112C85.4205 35.0757 85.7471 35.3122 86.0177 35.6065C86.2882 35.9009 86.4972 36.247 86.632 36.6244C86.7669 37.0018 86.8249 37.4026 86.8027 37.803Z" fill="#EEA575"/>
            </g>
            <g style="mix-blend-mode:multiply">
                <path d="M27.9219 34.6397H23.8959C23.6785 34.6391 23.4618 34.6635 23.25 34.7125C23.4629 34.6704 23.679 34.6461 23.8959 34.6397H27.9219Z" fill="#EEA575"/>
            </g>
            <g style="mix-blend-mode:multiply">
                <path d="M39.9229 87.35C39.9618 87.1569 39.9813 86.9603 39.9811 86.7632V74.6357C39.9468 74.8296 39.9273 75.0257 39.9229 75.2226V87.35Z" fill="#EEA575"/>
            </g>
            <g style="mix-blend-mode:multiply">
                <path d="M39.9716 74.6357C40.1133 73.6852 40.5885 72.8173 41.311 72.1893C42.0336 71.5613 42.9557 71.2148 43.9102 71.2126H55.9153C56.975 71.2139 57.9908 71.6383 58.7401 72.3928C59.4894 73.1473 59.9109 74.1702 59.9122 75.2371V87.4624C59.8949 88.4836 60.2534 89.4752 60.9187 90.2462C61.584 91.0172 62.509 91.5131 63.5157 91.6385C64.0695 91.6909 64.628 91.6264 65.1556 91.449C65.6832 91.2715 66.1683 90.9852 66.5797 90.6082C66.9911 90.2313 67.3198 89.772 67.5448 89.2597C67.7698 88.7475 67.8862 88.1936 67.8865 87.6335V86.7729C67.8776 87.5586 67.5626 88.3094 67.0095 88.8636C66.4564 89.4178 65.7092 89.7312 64.9289 89.7363C64.5386 89.7363 64.1521 89.6589 63.7915 89.5085C63.4309 89.3581 63.1033 89.1376 62.8273 88.8597C62.5513 88.5818 62.3323 88.2519 62.183 87.8888C62.0336 87.5257 61.9567 87.1366 61.9567 86.7436V70.0928C61.9567 69.8334 61.8544 69.5846 61.6723 69.4012C61.4901 69.2178 61.2431 69.1147 60.9855 69.1147H40.9332C40.6756 69.1147 40.4285 69.2178 40.2464 69.4012C40.0642 69.5846 39.9619 69.8334 39.9619 70.0928L39.9716 74.6357Z" fill="#EEA575"/>
            </g>
            <g style="mix-blend-mode:multiply">
                <path d="M67.9063 59.1289V62.195C67.9124 62.446 68.0142 62.6849 68.1904 62.8624C68.3667 63.0399 68.604 63.1424 68.8533 63.1486H71.8788C70.8234 63.1434 69.813 62.7176 69.0686 61.9643C68.3242 61.2111 67.9062 60.1916 67.9063 59.1289V59.1289Z" fill="#EEA575"/>
            </g>
            <g style="mix-blend-mode:multiply">
                <path d="M39.9717 59.1289V62.195C39.9778 62.446 40.0796 62.6849 40.2559 62.8624C40.4321 63.0399 40.6695 63.1424 40.9187 63.1486H43.9491C42.8929 63.1447 41.8812 62.7195 41.1358 61.9661C40.3903 61.2127 39.9717 60.1925 39.9717 59.1289Z" fill="#EEA575"/>
            </g>
            <g style="mix-blend-mode:multiply">
                <path d="M39.9716 46.3024C39.9716 44.5078 41.8364 42.6887 43.8567 42.6887H54.978C57.1877 42.6887 59.0185 45.3782 59.0185 47.6032V59.9996C59.0175 60.6075 58.8788 61.2072 58.6128 61.7529C58.3469 62.2986 57.9608 62.7761 57.4839 63.1488H61C61.2576 63.1488 61.5046 63.0458 61.6868 62.8624C61.8689 62.679 61.9713 62.4302 61.9713 62.1708V41.5835C61.9713 41.3241 61.8689 41.0754 61.6868 40.8919C61.5046 40.7085 61.2576 40.6055 61 40.6055H40.8943C40.7708 40.6048 40.6484 40.6288 40.5341 40.6759C40.4198 40.7231 40.3159 40.7925 40.2284 40.8802C40.1408 40.9679 40.0714 41.0721 40.024 41.187C39.9765 41.3018 39.9521 41.4249 39.9521 41.5493L39.9716 46.3024Z" fill="#EEA575"/>
            </g>
            <g style="mix-blend-mode:multiply">
                <path d="M83.9034 63.1541H83.85C84.2525 63.1561 84.6504 63.2405 85.0196 63.4021C85.3888 63.5636 85.7215 63.799 85.9976 64.094C86.2737 64.3889 86.4874 64.7373 86.6258 65.1179C86.7642 65.4985 86.8244 65.9035 86.8027 66.3082C86.7327 67.0919 86.3699 67.8196 85.7875 68.3443C85.2051 68.869 84.4467 69.1515 83.6654 69.1347H68.8484C68.6 69.1421 68.3639 69.2451 68.1887 69.4225C68.0134 69.5998 67.9124 69.8381 67.9063 70.0882V75.2228C67.9062 74.1563 68.3267 73.1334 69.0752 72.3788C69.8237 71.6242 70.8391 71.1996 71.8982 71.1983H83.9034C84.544 71.1976 85.1752 71.0423 85.7439 70.7454C86.3126 70.4484 86.8023 70.0184 87.1719 69.4916C87.5415 68.9647 87.7803 68.3562 87.8681 67.7172C87.956 67.0782 87.8904 66.4274 87.6768 65.8192C87.4043 65.033 86.8934 64.3528 86.2164 63.8746C85.5394 63.3965 84.7303 63.1444 83.9034 63.1541V63.1541Z" fill="#EEA575"/>
            </g>
            <g style="mix-blend-mode:multiply">
                <path d="M43.8471 34.635C42.9015 34.621 41.9917 34.2691 41.28 33.6421C40.5684 33.015 40.1012 32.1537 39.9619 31.2119V33.657C39.9619 33.9164 40.0642 34.1651 40.2464 34.3485C40.4285 34.5319 40.6756 34.635 40.9332 34.635H43.8471Z" fill="#EEA575"/>
            </g>
            <g style="mix-blend-mode:multiply">
                <path d="M39.9225 30.6149C39.9272 30.8134 39.9467 31.0111 39.9808 31.2066V26.3948C39.9766 26.1164 39.9341 25.8399 39.8545 25.5732C39.8971 25.8006 39.9198 26.0314 39.9225 26.2627V30.6149Z" fill="#EEA575"/>
            </g>
            <g style="mix-blend-mode:multiply">
                <path d="M36.6154 89.7358C35.8851 89.6203 35.2209 89.2429 34.7452 88.6732C34.2695 88.1034 34.0144 87.3797 34.0269 86.6355V70.107C34.0269 69.8476 33.9245 69.5988 33.7424 69.4154C33.5602 69.232 33.3132 69.1289 33.0556 69.1289H24.0517C23.2697 69.1456 22.5106 68.8625 21.9281 68.3368C21.3456 67.8111 20.9833 67.0821 20.9145 66.2976C20.8933 65.8908 20.9549 65.4839 21.0953 65.1019C21.2358 64.7199 21.4523 64.3707 21.7314 64.0759C22.0106 63.7811 22.3466 63.5467 22.7189 63.3872C23.0911 63.2277 23.4918 63.1465 23.8963 63.1483H33.0702C33.3278 63.1483 33.5748 63.0453 33.757 62.8619C33.9391 62.6785 34.0414 62.4297 34.0414 62.1703V41.583C34.0414 41.3236 33.9391 41.0749 33.757 40.8914C33.5748 40.708 33.3278 40.605 33.0702 40.605H24.008C23.2747 40.6176 22.5613 40.365 21.9972 39.893C21.4331 39.421 21.0558 38.761 20.9339 38.0328C20.8334 37.2888 21.0143 36.534 21.4407 35.918C21.8671 35.302 22.5079 34.87 23.2359 34.7075C22.2705 34.8708 21.3986 35.3863 20.7868 36.1557C20.175 36.9252 19.866 37.8945 19.9189 38.8788C19.998 39.9328 20.4739 40.9166 21.2492 41.6292C22.0246 42.3418 23.041 42.7293 24.0906 42.7126H27.9223C28.9769 42.7113 29.9891 43.1302 30.738 43.8778C31.4868 44.6255 31.9115 45.6411 31.9192 46.7029V59.1091C31.9198 59.6378 31.8169 60.1614 31.6162 60.65C31.4156 61.1386 31.1212 61.5825 30.75 61.9563C30.3787 62.3302 29.9378 62.6266 29.4526 62.8286C28.9674 63.0307 28.4474 63.1343 27.9223 63.1337H24.0809C23.0685 63.1171 22.0855 63.4771 21.3203 64.1448C20.555 64.8125 20.0613 65.7409 19.9335 66.7523C19.8814 67.31 19.9456 67.8724 20.1218 68.4037C20.298 68.9349 20.5823 69.4233 20.9567 69.8376C21.3311 70.2518 21.7872 70.5828 22.2959 70.8094C22.8046 71.036 23.3547 71.1532 23.9109 71.1534H27.9223C28.4474 71.1528 28.9674 71.2565 29.4526 71.4585C29.9378 71.6605 30.3787 71.9569 30.75 72.3308C31.1212 72.7046 31.4156 73.1485 31.6162 73.6371C31.8169 74.1257 31.9198 74.6493 31.9192 75.178V87.5793C31.9205 88.6463 32.342 89.6692 33.0913 90.4236C33.8405 91.1781 34.8564 91.6025 35.916 91.6038V91.6038C36.9723 91.6052 37.9863 91.1859 38.7369 90.4375C39.4874 89.6891 39.9136 88.6722 39.9226 87.6086V87.3494C39.775 88.0955 39.3511 88.7572 38.737 89.2003C38.1229 89.6434 37.3644 89.8349 36.6154 89.7358V89.7358Z" fill="#EEA575"/>
            </g>
            <g style="mix-blend-mode:multiply">
                <path d="M34.0277 26.5122C34.0146 25.7849 34.2583 25.0765 34.7155 24.5132C35.1726 23.9499 35.8135 23.5683 36.524 23.4363C37.2393 23.3241 37.9708 23.4795 38.5801 23.8732C39.1894 24.2669 39.6345 24.8717 39.8312 25.5733C39.6676 24.6462 39.1863 23.8062 38.4711 23.1995C37.7559 22.5928 36.8521 22.2579 35.9169 22.2529V22.2529C34.8569 22.2529 33.8403 22.6769 33.0907 23.4317C32.3411 24.1864 31.92 25.2101 31.92 26.2775V30.6297C31.9189 31.6853 31.5059 32.6982 30.7701 33.4501C30.0343 34.202 29.0345 34.6327 27.9863 34.6493H33.0662C33.3238 34.6493 33.5708 34.5463 33.753 34.3629C33.9351 34.1795 34.0375 33.9307 34.0375 33.6713L34.0277 26.5122Z" fill="#EEA575"/>
            </g>
        </g>
        <path d="M55.6821 63.1103C59.4103 63.1103 62.4326 58.5038 62.4326 52.8215C62.4326 47.1392 59.4103 42.5327 55.6821 42.5327C51.9539 42.5327 48.9316 47.1392 48.9316 52.8215C48.9316 58.5038 51.9539 63.1103 55.6821 63.1103Z" fill="white"/>
        <path d="M57.6002 59.3842C60.0195 59.3842 61.9807 56.3957 61.9807 52.7092C61.9807 49.0227 60.0195 46.0342 57.6002 46.0342C55.1809 46.0342 53.2197 49.0227 53.2197 52.7092C53.2197 56.3957 55.1809 59.3842 57.6002 59.3842Z" fill="#29151A"/>
        <path d="M72.2135 63.0418C75.9309 63.0418 78.9445 58.4507 78.9445 52.7873C78.9445 47.1238 75.9309 42.5327 72.2135 42.5327C68.496 42.5327 65.4824 47.1238 65.4824 52.7873C65.4824 58.4507 68.496 63.0418 72.2135 63.0418Z" fill="white"/>
        <path d="M74.1218 59.3201C76.533 59.3201 78.4877 56.3426 78.4877 52.6696C78.4877 48.9966 76.533 46.019 74.1218 46.019C71.7106 46.019 69.7559 48.9966 69.7559 52.6696C69.7559 56.3426 71.7106 59.3201 74.1218 59.3201Z" fill="#29151A"/>
    </g>
    <defs>
        <linearGradient id="paint0_linear_2815_5461" x1="24.8628" y1="82.1664" x2="79.1856" y2="28.2175" gradientUnits="userSpaceOnUse">
            <stop stop-color="#F0C25B"/>
            <stop offset="0.45" stop-color="#F0C35D"/>
            <stop offset="0.63" stop-color="#F1C564"/>
            <stop offset="0.76" stop-color="#F3C970"/>
            <stop offset="0.87" stop-color="#F5CE82"/>
            <stop offset="0.97" stop-color="#F8D698"/>
            <stop offset="1" stop-color="#F9D9A2"/>
        </linearGradient>
    </defs>
</svg>
