<svg width="25" height="23" viewBox="0 0 25 23" fill="none" xmlns="http://www.w3.org/2000/svg">
    <path d="M14.3811 17.0315C14.8346 16.9527 15.1976 16.9052 15.5529 16.8265C18.233 16.2321 19.6232 14.6106 19.8064 11.9039C19.899 10.55 19.6729 9.29541 18.7736 8.20367C18.6765 8.08608 18.6743 7.84335 18.7129 7.67614C18.8882 6.88198 18.8552 6.05737 18.6169 5.27905C18.5165 4.93276 18.3212 4.75368 17.9935 4.87127C17.1561 5.17009 16.3385 5.52717 15.5054 5.83355C15.2538 5.92525 14.9537 6.00724 14.7011 5.95654C12.9864 5.60427 11.2152 5.60757 9.50194 5.96624C9.26692 6.01479 8.98115 5.93388 8.74613 5.84542C7.93074 5.53688 7.1341 5.17657 6.31871 4.8799C5.95239 4.74721 5.64675 4.91118 5.62248 5.32436C5.57724 6.10325 5.57834 6.88538 5.54083 7.66535C5.5309 7.88111 5.51655 8.13139 5.39849 8.28997C3.0141 11.4897 4.82474 16.0573 8.80351 16.8502C9.12128 16.9128 9.44347 16.9581 9.73034 17.012C9.53835 17.4921 9.36843 17.9581 9.161 18.408C9.08142 18.5415 8.95707 18.644 8.80902 18.6982C7.60634 19.1578 6.47538 18.7845 5.71957 17.7402C5.44704 17.3659 5.13589 16.9851 4.75522 16.7294C4.44738 16.5244 4.01045 16.4899 3.62206 16.4219C3.51172 16.4025 3.34401 16.5061 3.2756 16.6032C3.23808 16.6571 3.32414 16.8664 3.4091 16.916C4.3547 17.4554 4.75081 18.3918 5.25064 19.2732C5.78908 20.2225 6.77992 20.3714 7.7884 20.3843C8.20437 20.3897 8.62145 20.3315 9.10252 20.298C9.10252 21.0457 9.12569 21.7436 9.0937 22.4395C9.07163 22.9335 8.69096 23.1126 8.115 22.9217C6.4663 22.3908 4.96815 21.4888 3.74122 20.2883C0.316343 16.916 -0.820133 12.8792 0.593291 8.35901C2.02216 3.786 5.32567 1.03075 10.1353 0.180662C16.1961 -0.890582 22.1433 2.90894 23.7421 8.7463C25.3409 14.5837 22.108 20.749 16.3495 22.8418C15.394 23.1892 15.0994 22.9886 15.1082 21.9982C15.1148 21.1535 15.1258 20.3078 15.1314 19.4631C15.1369 18.6184 15.0398 17.7769 14.3811 17.0315Z" fill="#464646"/>
</svg>