<svg width="151" height="150" viewBox="0 0 151 150" fill="none" xmlns="http://www.w3.org/2000/svg">
<path d="M74.8598 10.5712C74.1052 9.06181 73.0114 7.7548 71.6607 6.7431C70.0912 5.56733 68.1498 4.99312 66.192 5.13531C64.2342 5.27749 62.3913 6.1142 61.0077 7.50324C60.2585 5.99936 59.0992 4.7361 57.6718 3.85564C56.2445 2.97519 54.5984 2.50488 52.9196 2.50488H46.0126C42.0369 2.50488 38.2198 4.08533 35.4089 6.89622C32.598 9.70711 31.0176 13.5242 31.0176 17.5V27.4967H38.9417C43.3877 27.4967 47.7572 26.3428 51.6235 24.1553C55.4898 21.9624 58.7273 18.8124 61.0132 14.9953C61.8061 18.1671 63.2171 21.1476 65.1584 23.7725C67.1053 26.3975 69.5498 28.6123 72.3497 30.2966L76.0083 32.495V15.4273C76.0083 13.743 75.6145 12.0805 74.8598 10.5712Z" fill="url(#paint0_linear_2636_4964)"/>
<path d="M83.2688 88.2698L68.5034 72.4927L61.0059 79.9902L69.7721 88.6416L83.2688 88.2643V88.2698Z" fill="#F0745F"/>
<path d="M73.502 137.487L99.757 87.3617C100.134 86.6453 100.698 86.0437 101.387 85.6281C102.076 85.207 102.869 84.9883 103.678 84.9883C104.438 84.9883 105.187 85.1852 105.855 85.557C106.516 85.9289 107.074 86.4703 107.468 87.1211C107.862 87.7718 108.08 88.5156 108.108 89.2757C108.13 90.0359 107.96 90.7905 107.605 91.4686L86.3096 132.123C85.4619 133.741 84.1877 135.092 82.6292 136.038C81.0651 136.984 79.2769 137.482 77.4503 137.482H73.502V137.487Z" fill="#F0745F"/>
<path d="M101 127.491L105.998 117.494H118.5V127.491H101Z" fill="#F0745F"/>
<path d="M146 137.488L126.001 117.489H106.002L126.001 137.488H146Z" fill="#F0745F"/>
<path d="M46.005 34.994C47.3831 34.994 48.5042 33.8729 48.5042 32.4948C48.5042 31.1167 47.3831 29.9956 46.005 29.9956C44.6269 29.9956 43.5059 31.1167 43.5059 32.4948C43.5059 33.8729 44.6269 34.994 46.005 34.994Z" fill="#3A3A3A"/>
<path d="M60.9992 34.994C62.3773 34.994 63.4984 33.8729 63.4984 32.4948C63.4984 31.1167 62.3773 29.9956 60.9992 29.9956C59.6211 29.9956 58.5 31.1167 58.5 32.4948C58.5 33.8729 59.6211 34.994 60.9992 34.994Z" fill="#3A3A3A"/>
<path d="M58.5006 39.9923V37.4932H53.5023V39.9923C53.5023 40.6541 53.2398 41.2884 52.7695 41.7587C52.2992 42.229 51.6648 42.4915 51.0031 42.4915H48.5039V47.4899H51.0031C52.9937 47.4899 54.8968 46.6969 56.3022 45.2915C57.7077 43.886 58.5006 41.9775 58.5006 39.9923Z" fill="#3A3A3A"/>
<path d="M150.014 92.2783C150.621 91.3158 150.96 90.2056 150.998 89.0627C151.031 87.9197 150.757 86.7932 150.211 85.7924C149.658 84.7917 148.849 83.9604 147.87 83.3808C146.886 82.8011 145.77 82.4948 144.627 82.4948H103.508C102.075 82.5386 100.692 83.0144 99.5435 83.8729L99.2755 82.1886C98.9638 80.2253 98.1872 78.3605 97.0115 76.7582C95.8357 75.1504 94.2935 73.8489 92.5162 72.9575L73.1462 63.2725L70.926 54.3859C70.8111 53.9375 70.576 53.5273 70.2478 53.2047C69.9143 52.882 69.4986 52.6578 69.0502 52.5539C71.9322 49.0047 73.5072 44.5642 73.5017 39.9924V38.5268L77.7618 34.2667C77.9915 34.0315 78.1774 33.7526 78.3032 33.4519C78.429 33.1511 78.4946 32.823 78.4946 32.4949V15.4272C78.4946 13.3545 78.0024 11.3093 77.0782 9.45538C76.154 7.6015 74.8087 5.98825 73.1517 4.74139C71.5056 3.51641 69.5424 2.79455 67.4916 2.65236C65.4464 2.51018 63.4011 2.96408 61.6019 3.95391C60.5191 2.70705 59.1847 1.71175 57.6863 1.02817C56.1879 0.344589 54.5583 -0.00540555 52.9067 6.31099e-05H45.9998C41.3624 6.31099e-05 36.9109 1.84847 33.6297 5.12967C30.3485 8.41086 28.5055 12.8569 28.5001 17.4998V27.4965C28.5001 27.9887 28.6477 28.4754 28.9212 28.8855V28.9019L33.4984 35.7542V39.9979C33.4984 44.5751 35.0679 49.0102 37.9499 52.5594C37.496 52.6633 37.0804 52.8875 36.7523 53.2101C36.4187 53.5328 36.1835 53.9429 36.0742 54.3914L33.8539 63.2779L14.4839 72.963C12.7066 73.8543 11.1644 75.1559 9.98866 76.7637C8.81289 78.3715 8.03634 80.2308 7.72463 82.194L1.02552 124.609C0.932552 125.189 1.04739 125.785 1.35364 126.288L8.85117 138.789C9.07539 139.161 9.3871 139.467 9.76444 139.681C10.1418 139.894 10.5629 140.003 10.9949 140.003H18.4924V147.501C18.4924 148.163 18.7549 148.797 19.2252 149.267C19.6955 149.737 20.3299 150 20.9916 150H148.482C149.144 150 149.779 149.737 150.249 149.267C150.719 148.797 150.982 148.163 150.982 147.501V137.504C150.982 136.842 150.719 136.208 150.249 135.738C149.779 135.267 149.144 135.005 148.482 135.005H147.017L132.306 120.294L149.992 92.2892L150.008 92.2783H150.014ZM146 88.8713C146 89.1338 145.929 89.3853 145.786 89.6096L128.702 116.658L127.767 115.722C127.297 115.252 126.663 114.99 126.001 114.99H106.002C105.537 114.99 105.083 115.121 104.689 115.367C104.296 115.613 103.979 115.963 103.771 116.379L98.7724 126.375C98.581 126.758 98.4935 127.179 98.5099 127.606C98.5318 128.032 98.6575 128.448 98.8818 128.809C99.106 129.17 99.4177 129.471 99.7896 129.678C100.161 129.886 100.583 129.996 101.009 129.996H114.971L118.028 133.053C116.649 134.305 114.856 134.999 112.991 134.994H87.4468C87.8515 134.458 88.2124 133.889 88.5241 133.293L109.819 92.6392C110.656 91.0588 110.842 89.2103 110.339 87.4932H144.622C144.988 87.4932 145.338 87.6408 145.595 87.8979C145.852 88.1549 146 88.5049 146 88.8713ZM106.686 121.711L109.967 124.992H105.05L106.691 121.711H106.686ZM47.531 134.989L64.7901 124.631C65.0854 124.456 65.3425 124.215 65.5393 123.936C65.7417 123.657 65.8784 123.335 65.9495 122.996C66.0206 122.657 66.0206 122.307 65.9495 121.973C65.8784 121.634 65.7362 121.317 65.5393 121.038L64.5823 119.698L76.8759 109.997H85.0898L71.9978 134.994H47.531V134.989ZM71.0025 84.994C70.5924 84.994 70.1932 85.0979 69.8322 85.2893L64.5386 79.9957L68.5033 76.0309L77.4665 84.994H71.0025ZM72.2056 89.9924H84.9695L90.3561 95.379L84.5867 104.993H76.0009C75.4376 104.993 74.8907 105.184 74.4532 105.529L61.6675 115.624L55.0504 106.36L62.2636 102.155C62.5316 102.002 62.7612 101.799 62.9581 101.559L72.2056 89.9978V89.9924ZM103.683 87.4932C104.017 87.4932 104.339 87.5807 104.629 87.7393C104.919 87.9033 105.16 88.1385 105.335 88.4229C105.504 88.7072 105.603 89.0299 105.614 89.3635C105.625 89.6971 105.548 90.0252 105.395 90.3205L84.1 130.975C83.482 132.161 82.5578 133.162 81.4203 133.867C80.2828 134.573 78.9813 134.961 77.6415 134.994L101.977 88.5322C102.141 88.2205 102.387 87.958 102.688 87.7776C102.989 87.5971 103.333 87.4987 103.689 87.4987L103.683 87.4932ZM38.5077 39.9979V30.0011H38.9288C42.9647 29.9902 46.9459 29.1152 50.6208 27.4473C54.2903 25.7739 57.566 23.3403 60.2238 20.3052C62.0777 24.4067 64.9268 27.9887 68.5088 30.7121V40.0033C68.5088 43.979 66.9284 47.7962 64.1175 50.6071C61.3066 53.4179 57.4895 54.9984 53.5137 54.9984C49.538 54.9984 45.7209 53.4179 42.91 50.6071C40.0991 47.7962 38.5187 43.979 38.5187 40.0033H38.5077V39.9979ZM70.1603 8.74445C71.1939 9.52647 72.0361 10.5327 72.6158 11.6975C73.1954 12.8569 73.5017 14.1366 73.5017 15.4326V28.0871C68.5526 25.0903 64.9651 20.2833 63.505 14.6889V8.65695C64.4839 7.97337 65.6542 7.61244 66.8463 7.62885C68.0385 7.64525 69.1979 8.039 70.1603 8.74992V8.74445ZM33.5039 17.4998C33.5039 14.1858 34.8273 11.0085 37.1679 8.66789C39.5085 6.32731 42.6858 5.00389 45.9998 5.00389H52.9067C54.0278 5.00389 55.1379 5.28826 56.1168 5.83513C57.0957 6.38746 57.916 7.18042 58.4957 8.1429V14.2897C56.3848 17.5654 53.4864 20.2615 50.0685 22.1317C46.6506 24.002 42.817 24.9864 38.9179 24.9973H33.493V17.4998H33.5039ZM6.11684 124.483L12.6738 82.9651C12.8597 81.7839 13.3245 80.6683 14.03 79.7058C14.7355 78.7433 15.6597 77.9613 16.726 77.4254L35.7406 67.9208L38.5023 69.9935C42.8334 73.2309 48.0943 74.9809 53.5028 74.9918V69.9935C49.1771 69.9825 44.9717 68.5826 41.5046 65.9959L38.8304 63.9943L40.4546 57.4976H43.8342C46.7928 59.1382 50.1177 59.9967 53.5028 59.9967C56.8879 59.9967 60.2128 59.1382 63.1714 57.4976H66.551L68.5799 65.6021C68.6674 65.9521 68.8315 66.2802 69.0557 66.5591C69.2799 66.838 69.5643 67.0677 69.8869 67.2318L90.285 77.4308C91.3514 77.9668 92.2756 78.7488 92.9811 79.7113C93.6865 80.6738 94.1514 81.7894 94.3373 82.9706L95.4748 90.1674L94.3537 92.3111L87.7749 85.7323C87.3046 85.262 86.6702 84.9995 86.0085 84.9995H84.5429L70.2752 70.7317C69.8049 70.2614 69.1705 69.9989 68.5088 69.9989C67.8471 69.9989 67.2127 70.2614 66.7424 70.7317L59.2449 78.2293C59.0152 78.459 58.8293 78.7379 58.7035 79.0386C58.5777 79.3394 58.5121 79.6675 58.5121 79.9957C58.5121 80.3238 58.5777 80.6464 58.7035 80.9527C58.8293 81.2589 59.0152 81.5323 59.2449 81.762L66.551 89.0682L59.3488 98.0696L33.5094 113.141V104.993H28.511V117.494C28.511 117.932 28.6259 118.364 28.8446 118.747C29.0633 119.129 29.3805 119.441 29.7633 119.66C30.1461 119.879 30.5782 119.993 31.0157 119.993C31.4532 119.993 31.8852 119.873 32.268 119.654L50.7192 108.892L59.9011 121.743L37.8187 134.994H12.4222L6.11684 124.489V124.483ZM146 144.991H23.5072V139.992H146V144.991ZM127.034 134.994L112.034 119.993H124.962L139.962 134.994H127.034Z" fill="#3A3A3A"/>
<defs>
<linearGradient id="paint0_linear_2636_4964" x1="73.9138" y1="8.88681" x2="33.6863" y2="32.1177" gradientUnits="userSpaceOnUse">
<stop stop-color="#FF964A"/>
<stop offset="0.53" stop-color="#F58156"/>
<stop offset="1" stop-color="#F0745F"/>
</linearGradient>
</defs>
</svg>
