<svg width="150" height="150" viewBox="0 0 150 150" fill="none" xmlns="http://www.w3.org/2000/svg">
<path d="M134.66 147.523H13.7656V117.521C13.7656 100.545 27.5308 86.7802 44.5061 86.7802L54.5196 87.5075L59.5236 107.513L75.0442 96.5257L88.5414 106.649L96.0392 86.4028L104.204 86.7802C121.026 86.7802 134.66 100.414 134.66 117.236V147.523Z" fill="url(#paint0_linear_2636_5074)"/>
<path d="M84.665 104.909L79.5352 113.457L84.5392 148.474H89.5432L102.045 88.4478H94.5417L89.5432 108.458L84.665 104.909Z" fill="white"/>
<path d="M64.3976 103.969L69.5274 112.516L64.5234 147.528H59.5194L47.0176 87.5073H54.5209L59.5194 107.512L64.3976 103.969Z" fill="white"/>
<path d="M122.044 2.47217H27.006C25.677 2.47217 24.4083 2.99718 23.4676 3.93782C22.527 4.87847 22.002 6.14724 22.002 7.47618V17.4787H127.042V7.47618C127.042 6.14724 126.517 4.87847 125.577 3.93782C124.636 2.99718 123.367 2.47217 122.038 2.47217H122.044Z" fill="#F0745F"/>
<path d="M104.539 85.0026H89.5321V80.004H122.044C124.035 80.004 125.944 79.2165 127.349 77.8055C128.755 76.4 129.548 74.4914 129.548 72.5007V7.50328C129.548 5.51261 128.755 3.60398 127.349 2.19848C125.944 0.792985 124.035 0 122.044 0H27.0066C25.0159 0 23.1073 0.787516 21.7018 2.19848C20.2963 3.60398 19.5033 5.51261 19.5033 7.50328V72.5007C19.5033 74.4914 20.2963 76.4 21.7018 77.8055C23.1073 79.211 25.0159 80.004 27.0066 80.004H59.519V85.0026H44.5124C35.8935 85.0135 27.63 88.437 21.5322 94.5348C15.4344 100.627 12.0109 108.891 12 117.504V147.501C12 148.162 12.2625 148.797 12.7328 149.267C13.2032 149.737 13.8375 150 14.4993 150H134.546C135.208 150 135.848 149.737 136.313 149.267C136.783 148.797 137.046 148.162 137.046 147.501V117.504C137.035 108.885 133.606 100.627 127.513 94.5348C121.416 88.4425 113.152 85.0135 104.533 85.0026H104.539ZM91.9603 108.109L96.4885 90.0011H98.9659L87.5031 145.001H86.7047L82.1437 113.096L85.682 107.791L88.0664 109.525C88.4 109.766 88.7828 109.919 89.1875 109.979C89.5922 110.034 90.0079 109.995 90.3907 109.853C90.7735 109.711 91.1181 109.481 91.3915 109.175C91.6649 108.869 91.8618 108.502 91.9603 108.109ZM78.2061 110.001H70.8778L67.4269 104.844L74.531 99.681L81.635 104.844L78.2115 110.001H78.2061ZM71.7036 114.999H77.3693L81.6569 144.996H67.4105L71.7036 114.999ZM88.0172 103.296L78.7803 96.5911L87.8477 90.0011H91.3313L88.0172 103.296ZM27.0066 5.00401H122.044C122.706 5.00401 123.346 5.26652 123.811 5.73684C124.281 6.20716 124.544 6.84155 124.544 7.50328V15.0011H24.5073V7.50328C24.5073 6.84155 24.7698 6.20169 25.2401 5.73684C25.7104 5.26652 26.3448 5.00401 27.0066 5.00401ZM24.5073 72.5007V19.9996H124.544V72.5007C124.544 73.1625 124.281 73.8023 123.811 74.2672C123.341 74.7375 122.706 75 122.044 75H27.0066C26.3448 75 25.705 74.7375 25.2401 74.2672C24.7698 73.7969 24.5073 73.1625 24.5073 72.5007ZM84.5281 79.9985V86.2276L74.5255 93.5012L64.523 86.2276V79.9985H84.5281ZM61.2088 89.9956L70.2762 96.5856L61.0502 103.29L57.7252 89.9956H61.2088ZM57.0963 108.103C57.1947 108.502 57.3916 108.869 57.665 109.169C57.9385 109.476 58.283 109.705 58.6658 109.848C59.0486 109.99 59.4643 110.028 59.869 109.973C60.2737 109.919 60.662 109.76 60.9901 109.519L63.3745 107.786L66.9129 113.091L62.3518 144.996H61.5534L50.0906 89.9956H52.568L57.0963 108.103ZM17.004 117.493C17.0149 110.203 19.9134 103.214 25.0706 98.0567C30.2277 92.8996 37.2224 90.0011 44.5124 89.9956H44.9827L56.4455 144.996H42.0131V114.999C42.0131 114.338 41.7506 113.698 41.2803 113.233C40.81 112.763 40.1756 112.5 39.5139 112.5C38.8521 112.5 38.2123 112.763 37.7474 113.233C37.2771 113.703 37.0146 114.338 37.0146 114.999V144.996H17.0095V117.499L17.004 117.493ZM132.047 144.991H112.042V117.493C112.042 116.831 111.779 116.191 111.309 115.727C110.839 115.256 110.204 114.994 109.543 114.994C108.881 114.994 108.241 115.256 107.776 115.727C107.306 116.197 107.043 116.831 107.043 117.493V144.991H92.6111L104.074 89.9902H104.544C111.84 90.0011 118.829 92.8996 123.986 98.0513C129.143 103.208 132.047 110.198 132.052 117.488V144.985H132.047V144.991Z" fill="#3A3A3A"/>
<path d="M37.0129 29.9858C36.3512 29.9858 35.7114 30.2483 35.2465 30.7187C34.7762 31.189 34.5137 31.8234 34.5137 32.4851V67.4968C34.5137 68.1585 34.7762 68.7984 35.2465 69.2632C35.7168 69.7335 36.3512 69.996 37.0129 69.996C37.6747 69.996 38.3145 69.7335 38.7794 69.2632C39.2497 68.7929 39.5122 68.1585 39.5122 67.4968V32.4851C39.5122 31.8234 39.2497 31.1835 38.7794 30.7187C38.3091 30.2483 37.6747 29.9858 37.0129 29.9858Z" fill="#3A3A3A"/>
<path d="M45.6285 37.0681L53.1318 42.0721C53.4053 42.2526 53.7115 42.3783 54.0342 42.444C54.3568 42.5096 54.6904 42.5096 55.0076 42.444C55.3303 42.3783 55.6366 42.2526 55.91 42.0721C56.1834 41.8916 56.4186 41.6564 56.5991 41.383C56.7795 41.1096 56.9053 40.8033 56.971 40.4806C57.0366 40.158 57.0366 39.8244 56.971 39.5072C56.9053 39.1845 56.7795 38.8783 56.5991 38.6048C56.4186 38.3314 56.1834 38.0962 55.91 37.9157L51.5185 34.9954L55.8991 32.075C56.1725 31.8945 56.4077 31.6594 56.5881 31.3859C56.7686 31.1125 56.8999 30.8062 56.96 30.4836C57.0257 30.1609 57.0257 29.8273 56.96 29.5101C56.8944 29.1874 56.7686 28.8812 56.5881 28.6077C56.4077 28.3343 56.1725 28.0991 55.8991 27.9187C55.6256 27.7382 55.3194 27.6069 54.9967 27.5468C54.674 27.4812 54.3404 27.4812 54.0232 27.5468C53.7006 27.6124 53.3943 27.7382 53.1209 27.9187L45.6176 32.9227C45.2731 33.1524 44.9942 33.4586 44.7973 33.825C44.6004 34.186 44.502 34.5907 44.502 35.0063C44.502 35.4219 44.6059 35.8212 44.7973 36.1876C44.9942 36.5485 45.2731 36.8603 45.6176 37.0899H45.6231V37.0681H45.6285Z" fill="#3A3A3A"/>
<path d="M72.4465 41.3775C72.627 41.651 72.8621 41.8861 73.1356 42.0666C73.409 42.2471 73.7153 42.3783 74.0379 42.4385C74.3606 42.5041 74.6942 42.5041 75.0114 42.4385C75.3341 42.3729 75.6403 42.2471 75.9138 42.0666L83.417 37.0626C83.7616 36.8329 84.0405 36.5267 84.2374 36.1602C84.4342 35.7993 84.5327 35.3946 84.5327 34.979C84.5327 34.5633 84.4288 34.1641 84.2374 33.7977C84.0405 33.4367 83.7616 33.125 83.417 32.8953L75.9138 27.8913C75.6403 27.7108 75.3341 27.5851 75.0114 27.5194C74.6887 27.4538 74.3551 27.4538 74.0379 27.5194C73.7153 27.5851 73.409 27.7108 73.1356 27.8913C72.8621 28.0718 72.627 28.307 72.4465 28.5804C72.266 28.8538 72.1402 29.1601 72.0746 29.4828C72.009 29.8054 72.009 30.139 72.0746 30.4562C72.2059 31.107 72.5887 31.6812 73.141 32.0477L77.5325 34.968L73.152 37.8884C72.8785 38.0689 72.6434 38.304 72.4574 38.5775C72.2715 38.8509 72.1457 39.1572 72.0801 39.4798C72.0144 39.8025 72.0144 40.1361 72.0801 40.4588C72.1457 40.7814 72.2715 41.0877 72.452 41.3611V41.3775H72.4465Z" fill="#3A3A3A"/>
<path d="M61.2298 44.8612C61.8587 45.069 62.5478 45.0198 63.1384 44.7245C63.7291 44.4292 64.183 43.9096 64.3908 43.2807L69.3948 28.2741C69.4987 27.9624 69.5425 27.6343 69.5151 27.3062C69.4933 26.978 69.4058 26.6554 69.2581 26.3655C69.1104 26.0702 68.9081 25.8077 68.6565 25.5944C68.4049 25.3811 68.1206 25.2171 67.8088 25.1131C67.4971 25.0092 67.169 24.9655 66.8408 24.9928C66.5127 25.0147 66.1901 25.1022 65.9002 25.2499C65.6049 25.3975 65.3424 25.5999 65.1291 25.8514C64.9158 26.0975 64.7517 26.3874 64.6478 26.6991L59.6438 41.7057C59.5399 42.0174 59.5016 42.3455 59.5235 42.6737C59.5454 43.0018 59.6384 43.3245 59.786 43.6143C59.9337 43.9096 60.136 44.1721 60.3876 44.3854C60.6392 44.5987 60.9235 44.7628 61.2407 44.8667H61.2298V44.8612Z" fill="#3A3A3A"/>
<path d="M44.5176 49.9912H59.5241V54.9952H44.5176V49.9912Z" fill="#3A3A3A"/>
<path d="M64.5234 49.9912H69.5274V54.9952H64.5234V49.9912Z" fill="#3A3A3A"/>
<path d="M52.0137 57.4941H82.0268V62.4982H52.0137V57.4941Z" fill="#3A3A3A"/>
<path d="M97.0352 57.4941H114.541V62.4982H97.0352V57.4941Z" fill="#3A3A3A"/>
<path d="M52.0137 64.9976H57.0177V70.0016H52.0137V64.9976Z" fill="#3A3A3A"/>
<path d="M62.0215 64.9976H92.0346V70.0016H62.0215V64.9976Z" fill="#3A3A3A"/>
<path d="M97.0352 64.9976H107.038V70.0016H97.0352V64.9976Z" fill="#3A3A3A"/>
<path d="M87.0312 57.4941H92.0353V62.4982H87.0312V57.4941Z" fill="#3A3A3A"/>
<path d="M29.5098 7.47607H34.5138V12.4801H29.5098V7.47607Z" fill="#3A3A3A"/>
<path d="M39.5137 7.47607H44.5177V12.4801H39.5137V7.47607Z" fill="#3A3A3A"/>
<path d="M49.5156 7.47607H54.5196V12.4801H49.5156V7.47607Z" fill="#3A3A3A"/>
<defs>
<linearGradient id="paint0_linear_2636_5074" x1="125.861" y1="93.8241" x2="18.5399" y2="155.786" gradientUnits="userSpaceOnUse">
<stop stop-color="#FF964A"/>
<stop offset="0.22" stop-color="#F68355"/>
<stop offset="0.45" stop-color="#F0745F"/>
</linearGradient>
</defs>
</svg>
