<svg width="14" height="15" viewBox="0 0 14 15" fill="none" xmlns="http://www.w3.org/2000/svg">
    <mask id="path-1-inside-1_4058_722" fill="white">
        <path fill-rule="evenodd" clip-rule="evenodd" d="M3.81128 2.17408L5.17141 0.813941L6.95153 2.59406L8.76449 0.781093L10.1246 2.14123L8.31166 3.95419L10.481 6.12353L12.2932 4.3113L13.6534 5.67143L11.8411 7.48367L13.6561 9.29859L12.2959 10.6587L10.481 8.8438L8.31154 11.0133L10.1271 12.8288L8.76695 14.189L6.9514 12.3734L5.16872 14.1561L3.80858 12.796L5.59127 11.0133L3.42193 8.84393L1.63997 10.6259L0.279839 9.26575L2.06179 7.48379L0.282302 5.7043L1.64244 4.34417L3.42193 6.12366L5.59139 3.95419L3.81128 2.17408ZM6.9514 9.65313L4.78206 7.48379L6.95153 5.31433L9.12087 7.48367L6.9514 9.65313Z"/>
    </mask>
    <path fill-rule="evenodd" clip-rule="evenodd" d="M3.81128 2.17408L5.17141 0.813941L6.95153 2.59406L8.76449 0.781093L10.1246 2.14123L8.31166 3.95419L10.481 6.12353L12.2932 4.3113L13.6534 5.67143L11.8411 7.48367L13.6561 9.29859L12.2959 10.6587L10.481 8.8438L8.31154 11.0133L10.1271 12.8288L8.76695 14.189L6.9514 12.3734L5.16872 14.1561L3.80858 12.796L5.59127 11.0133L3.42193 8.84393L1.63997 10.6259L0.279839 9.26575L2.06179 7.48379L0.282302 5.7043L1.64244 4.34417L3.42193 6.12366L5.59139 3.95419L3.81128 2.17408ZM6.9514 9.65313L4.78206 7.48379L6.95153 5.31433L9.12087 7.48367L6.9514 9.65313Z" fill="#F0745F"/>
    <path d="M5.17141 0.813941L3.7572 -0.600273L5.17141 -2.01449L6.58562 -0.600273L5.17141 0.813941ZM3.81128 2.17408L2.39706 3.58829L0.982849 2.17407L2.39706 0.759862L3.81128 2.17408ZM6.95153 2.59406L8.36574 4.00827L6.95153 5.42249L5.53731 4.00827L6.95153 2.59406ZM8.76449 0.781093L7.35028 -0.63312L8.76449 -2.04733L10.1787 -0.63312L8.76449 0.781093ZM10.1246 2.14123L11.5388 0.727015L12.9531 2.14123L11.5388 3.55544L10.1246 2.14123ZM8.31166 3.95419L6.89745 5.36841L5.48324 3.95419L6.89745 2.53998L8.31166 3.95419ZM10.481 6.12353L11.8952 7.53775L10.481 8.95196L9.06679 7.53775L10.481 6.12353ZM12.2932 4.3113L10.879 2.89709L12.2932 1.48287L13.7074 2.89709L12.2932 4.3113ZM13.6534 5.67143L15.0676 4.25722L16.4818 5.67143L15.0676 7.08565L13.6534 5.67143ZM11.8411 7.48367L10.4269 8.89788L9.01271 7.48367L10.4269 6.06945L11.8411 7.48367ZM13.6561 9.29859L15.0703 7.88438L16.4845 9.29859L15.0703 10.7128L13.6561 9.29859ZM12.2959 10.6587L13.7101 12.0729L12.2959 13.4872L10.8817 12.0729L12.2959 10.6587ZM10.481 8.8438L9.06679 7.42959L10.481 6.01537L11.8952 7.42959L10.481 8.8438ZM8.31154 11.0133L6.89732 12.4275L5.48311 11.0133L6.89732 9.59905L8.31154 11.0133ZM10.1271 12.8288L11.5413 11.4146L12.9555 12.8288L11.5413 14.243L10.1271 12.8288ZM8.76695 14.189L10.1812 15.6032L8.76695 17.0174L7.35274 15.6032L8.76695 14.189ZM6.9514 12.3734L5.53719 10.9592L6.9514 9.54498L8.36561 10.9592L6.9514 12.3734ZM5.16872 14.1561L6.58293 15.5703L5.16872 16.9845L3.7545 15.5703L5.16872 14.1561ZM3.80858 12.796L2.39437 14.2102L0.980153 12.796L2.39437 11.3817L3.80858 12.796ZM5.59127 11.0133L7.00548 9.59905L8.41969 11.0133L7.00548 12.4275L5.59127 11.0133ZM3.42193 8.84393L2.00771 7.42971L3.42193 6.0155L4.83614 7.42971L3.42193 8.84393ZM1.63997 10.6259L3.05419 12.0401L1.63998 13.4543L0.225761 12.0401L1.63997 10.6259ZM0.279839 9.26575L-1.13437 10.68L-2.54859 9.26575L-1.13437 7.85153L0.279839 9.26575ZM2.06179 7.48379L3.47601 6.06958L4.89022 7.48379L3.47601 8.89801L2.06179 7.48379ZM0.282302 5.7043L-1.13191 7.11852L-2.54613 5.7043L-1.13191 4.29009L0.282302 5.7043ZM1.64244 4.34417L0.228224 2.92996L1.64244 1.51574L3.05665 2.92996L1.64244 4.34417ZM3.42193 6.12366L4.83614 7.53787L3.42193 8.95209L2.00771 7.53787L3.42193 6.12366ZM5.59139 3.95419L7.00561 2.53998L8.41982 3.95419L7.00561 5.36841L5.59139 3.95419ZM6.9514 9.65313L8.36561 11.0673L6.9514 12.4816L5.53719 11.0673L6.9514 9.65313ZM4.78206 7.48379L3.36785 8.89801L1.95363 7.48379L3.36785 6.06958L4.78206 7.48379ZM6.95153 5.31433L5.53731 3.90011L6.95153 2.4859L8.36574 3.90011L6.95153 5.31433ZM9.12087 7.48367L10.5351 6.06945L11.9493 7.48367L10.5351 8.89788L9.12087 7.48367ZM6.58562 2.22815L5.22549 3.58829L2.39706 0.759862L3.7572 -0.600273L6.58562 2.22815ZM5.53731 4.00827L3.7572 2.22815L6.58562 -0.600273L8.36574 1.17984L5.53731 4.00827ZM10.1787 2.19531L8.36574 4.00827L5.53731 1.17984L7.35028 -0.63312L10.1787 2.19531ZM8.71041 3.55544L7.35028 2.19531L10.1787 -0.63312L11.5388 0.727015L8.71041 3.55544ZM6.89745 2.53998L8.71041 0.727015L11.5388 3.55544L9.72588 5.36841L6.89745 2.53998ZM9.06679 7.53775L6.89745 5.36841L9.72588 2.53998L11.8952 4.70932L9.06679 7.53775ZM13.7074 5.72551L11.8952 7.53775L9.06679 4.70932L10.879 2.89709L13.7074 5.72551ZM12.2392 7.08565L10.879 5.72551L13.7074 2.89709L15.0676 4.25722L12.2392 7.08565ZM10.4269 6.06945L12.2392 4.25722L15.0676 7.08565L13.2553 8.89788L10.4269 6.06945ZM12.2418 10.7128L10.4269 8.89788L13.2553 6.06945L15.0703 7.88438L12.2418 10.7128ZM10.8817 9.24451L12.2418 7.88438L15.0703 10.7128L13.7101 12.0729L10.8817 9.24451ZM11.8952 7.42959L13.7101 9.24451L10.8817 12.0729L9.06679 10.258L11.8952 7.42959ZM6.89732 9.59905L9.06679 7.42959L11.8952 10.258L9.72575 12.4275L6.89732 9.59905ZM8.71287 14.243L6.89732 12.4275L9.72575 9.59905L11.5413 11.4146L8.71287 14.243ZM7.35274 12.7747L8.71288 11.4146L11.5413 14.243L10.1812 15.6032L7.35274 12.7747ZM8.36561 10.9592L10.1812 12.7747L7.35274 15.6032L5.53719 13.7876L8.36561 10.9592ZM3.7545 12.7419L5.53719 10.9592L8.36561 13.7876L6.58293 15.5703L3.7545 12.7419ZM5.22279 11.3817L6.58293 12.7419L3.7545 15.5703L2.39437 14.2102L5.22279 11.3817ZM7.00548 12.4275L5.22279 14.2102L2.39437 11.3817L4.17705 9.59905L7.00548 12.4275ZM4.83614 7.42971L7.00548 9.59905L4.17705 12.4275L2.00771 10.2581L4.83614 7.42971ZM0.225761 9.21167L2.00771 7.42971L4.83614 10.2581L3.05419 12.0401L0.225761 9.21167ZM1.69405 7.85153L3.05419 9.21167L0.225761 12.0401L-1.13437 10.68L1.69405 7.85153ZM3.47601 8.89801L1.69405 10.68L-1.13437 7.85153L0.647578 6.06958L3.47601 8.89801ZM1.69652 4.29009L3.47601 6.06958L0.647578 8.89801L-1.13191 7.11852L1.69652 4.29009ZM3.05665 5.75838L1.69652 7.11852L-1.13191 4.29009L0.228224 2.92996L3.05665 5.75838ZM2.00771 7.53787L0.228223 5.75838L3.05665 2.92996L4.83614 4.70945L2.00771 7.53787ZM7.00561 5.36841L4.83614 7.53787L2.00771 4.70945L4.17718 2.53998L7.00561 5.36841ZM5.22549 0.759862L7.00561 2.53998L4.17718 5.36841L2.39706 3.58829L5.22549 0.759862ZM5.53719 11.0673L3.36785 8.89801L6.19627 6.06958L8.36561 8.23892L5.53719 11.0673ZM3.36785 6.06958L5.53731 3.90011L8.36574 6.72854L6.19627 8.89801L3.36785 6.06958ZM8.36574 3.90011L10.5351 6.06945L7.70665 8.89788L5.53731 6.72854L8.36574 3.90011ZM10.5351 8.89788L8.36561 11.0673L5.53719 8.23892L7.70665 6.06945L10.5351 8.89788Z" fill="#F0745F" mask="url(#path-1-inside-1_4058_722)"/>
</svg>
