<svg xmlns="http://www.w3.org/2000/svg" width="8" height="8" viewBox="0 0 8 8" fill="none">
    <mask id="path-1-inside-1_4182_1043" fill="white">
        <path fill-rule="evenodd" clip-rule="evenodd" d="M3.07056 7.45508L1.94775 7.45508L1.94775 5.98556L0.451172 5.98556L0.451172 4.86275L1.94775 4.86275L1.94775 3.07189H0.451692L0.451692 1.94908H1.94775L1.94775 0.450901H3.07056L3.07056 1.94908L4.86143 1.94908L4.86143 0.45038H5.98423V1.94908H7.45587L7.45587 3.07189H5.98423L5.98423 4.86275L7.45535 4.86275L7.45535 5.98556L5.98423 5.98556V7.45456H4.86143V5.98556L3.07056 5.98556L3.07056 7.45508ZM4.86143 3.07189L4.86143 4.86275L3.07056 4.86275V3.07189L4.86143 3.07189Z"/>
    </mask>
    <path fill-rule="evenodd" clip-rule="evenodd" d="M3.07056 7.45508L1.94775 7.45508L1.94775 5.98556L0.451172 5.98556L0.451172 4.86275L1.94775 4.86275L1.94775 3.07189H0.451692L0.451692 1.94908H1.94775L1.94775 0.450901H3.07056L3.07056 1.94908L4.86143 1.94908L4.86143 0.45038H5.98423V1.94908H7.45587L7.45587 3.07189H5.98423L5.98423 4.86275L7.45535 4.86275L7.45535 5.98556L5.98423 5.98556V7.45456H4.86143V5.98556L3.07056 5.98556L3.07056 7.45508ZM4.86143 3.07189L4.86143 4.86275L3.07056 4.86275V3.07189L4.86143 3.07189Z" fill="#F0745F"/>
    <path d="M1.94775 7.45508L1.94775 9.45508L-0.0522451 9.45508L-0.0522451 7.45508H1.94775ZM3.07056 7.45508L5.07056 7.45508L5.07056 9.45508L3.07056 9.45508L3.07056 7.45508ZM1.94775 5.98556L1.94775 3.98556L3.94775 3.98556L3.94775 5.98556H1.94775ZM0.451172 5.98556L0.451172 7.98556L-1.54883 7.98556L-1.54883 5.98556L0.451172 5.98556ZM0.451172 4.86275L-1.54883 4.86275L-1.54883 2.86275L0.451172 2.86275L0.451172 4.86275ZM1.94775 4.86275L3.94775 4.86275L3.94775 6.86275L1.94776 6.86275L1.94775 4.86275ZM1.94775 3.07189L1.94775 1.07189H3.94775L3.94775 3.07189L1.94775 3.07189ZM0.451692 3.07189L0.451692 5.07189H-1.54831L-1.54831 3.07189L0.451692 3.07189ZM0.451692 1.94908L-1.54831 1.94908L-1.54831 -0.0509195H0.451692L0.451692 1.94908ZM1.94775 1.94908L3.94775 1.94908L3.94775 3.94908L1.94775 3.94908L1.94775 1.94908ZM1.94775 0.450901L-0.0522451 0.450901L-0.0522451 -1.5491H1.94775L1.94775 0.450901ZM3.07056 0.450901V-1.5491H5.07056L5.07056 0.450901L3.07056 0.450901ZM3.07056 1.94908L3.07056 3.94908L1.07056 3.94908L1.07056 1.94908L3.07056 1.94908ZM4.86143 1.94908L6.86143 1.94908L6.86143 3.94908L4.86143 3.94908L4.86143 1.94908ZM4.86143 0.45038L2.86143 0.45038L2.86143 -1.54962H4.86143V0.45038ZM5.98423 0.45038V-1.54962H7.98423V0.45038H5.98423ZM5.98423 1.94908L5.98423 3.94908H3.98423V1.94908L5.98423 1.94908ZM7.45587 1.94908V-0.05092H9.45587L9.45587 1.94908L7.45587 1.94908ZM7.45587 3.07189L9.45587 3.07189L9.45587 5.07189H7.45587L7.45587 3.07189ZM5.98423 3.07189L3.98423 3.07189L3.98423 1.07189L5.98423 1.07189V3.07189ZM5.98423 4.86275L5.98423 6.86275L3.98423 6.86275L3.98423 4.86275H5.98423ZM7.45535 4.86275L7.45535 2.86275L9.45535 2.86275L9.45535 4.86275L7.45535 4.86275ZM7.45535 5.98556L9.45535 5.98556L9.45535 7.98556L7.45535 7.98556L7.45535 5.98556ZM5.98423 5.98556L3.98423 5.98556L3.98423 3.98556L5.98423 3.98556L5.98423 5.98556ZM5.98423 7.45456H7.98423V9.45456H5.98423V7.45456ZM4.86143 7.45456V9.45456H2.86143V7.45456L4.86143 7.45456ZM4.86143 5.98556L4.86143 3.98556L6.86143 3.98556V5.98556L4.86143 5.98556ZM3.07056 5.98556L1.07056 5.98556L1.07056 3.98556L3.07056 3.98556L3.07056 5.98556ZM4.86143 3.07189L4.86142 1.07189L6.86143 1.07189L6.86143 3.07189L4.86143 3.07189ZM4.86143 4.86275L6.86143 4.86275L6.86143 6.86275L4.86143 6.86275L4.86143 4.86275ZM3.07056 4.86275L3.07056 6.86275L1.07056 6.86275L1.07056 4.86275H3.07056ZM3.07056 3.07189H1.07056L1.07056 1.07189L3.07056 1.07189L3.07056 3.07189ZM1.94775 5.45508L3.07056 5.45508L3.07056 9.45508L1.94775 9.45508L1.94775 5.45508ZM3.94775 5.98556V7.45508H-0.0522451L-0.0522451 5.98556H3.94775ZM0.451172 3.98556L1.94775 3.98556L1.94776 7.98556L0.451172 7.98556L0.451172 3.98556ZM2.45117 4.86275L2.45117 5.98556L-1.54883 5.98556L-1.54883 4.86275L2.45117 4.86275ZM1.94776 6.86275L0.451172 6.86275L0.451172 2.86275L1.94775 2.86275L1.94776 6.86275ZM3.94775 3.07189L3.94775 4.86275L-0.0522451 4.86275L-0.0522451 3.07189L3.94775 3.07189ZM0.451692 1.07189H1.94775L1.94775 5.07189H0.451692L0.451692 1.07189ZM2.45169 1.94908L2.45169 3.07189L-1.54831 3.07189L-1.54831 1.94908L2.45169 1.94908ZM1.94775 3.94908H0.451692L0.451692 -0.0509195H1.94775L1.94775 3.94908ZM3.94775 0.450901L3.94775 1.94908L-0.0522451 1.94908L-0.0522451 0.450901L3.94775 0.450901ZM3.07056 2.4509H1.94775L1.94775 -1.5491H3.07056L3.07056 2.4509ZM1.07056 1.94908L1.07056 0.450901L5.07056 0.450901L5.07056 1.94908L1.07056 1.94908ZM4.86143 3.94908L3.07056 3.94908L3.07056 -0.0509195L4.86142 -0.05092L4.86143 3.94908ZM6.86143 0.45038L6.86143 1.94908L2.86143 1.94908L2.86143 0.45038L6.86143 0.45038ZM5.98423 2.45038H4.86143V-1.54962H5.98423V2.45038ZM3.98423 1.94908L3.98423 0.45038L7.98423 0.45038V1.94908L3.98423 1.94908ZM7.45587 3.94908L5.98423 3.94908L5.98423 -0.05092H7.45587L7.45587 3.94908ZM5.45587 3.07189L5.45587 1.94908L9.45587 1.94908L9.45587 3.07189L5.45587 3.07189ZM5.98423 1.07189H7.45587L7.45587 5.07189L5.98423 5.07189L5.98423 1.07189ZM3.98423 4.86275V3.07189L7.98423 3.07189L7.98423 4.86275L3.98423 4.86275ZM7.45535 6.86275L5.98423 6.86275L5.98423 2.86275L7.45535 2.86275L7.45535 6.86275ZM5.45535 5.98556L5.45535 4.86275L9.45535 4.86275L9.45535 5.98556L5.45535 5.98556ZM5.98423 3.98556L7.45535 3.98556L7.45535 7.98556L5.98423 7.98556L5.98423 3.98556ZM3.98423 7.45456V5.98556L7.98423 5.98556V7.45456L3.98423 7.45456ZM4.86143 5.45456H5.98423V9.45456H4.86143V5.45456ZM6.86143 5.98556V7.45456L2.86143 7.45456V5.98556L6.86143 5.98556ZM3.07056 3.98556L4.86143 3.98556L4.86143 7.98556L3.07056 7.98556L3.07056 3.98556ZM1.07056 7.45508L1.07056 5.98556L5.07056 5.98556L5.07056 7.45508L1.07056 7.45508ZM6.86143 3.07189L6.86143 4.86275L2.86143 4.86275L2.86143 3.07189L6.86143 3.07189ZM4.86143 6.86275L3.07056 6.86275L3.07056 2.86275L4.86143 2.86275L4.86143 6.86275ZM1.07056 4.86275L1.07056 3.07189L5.07056 3.07189L5.07056 4.86275H1.07056ZM3.07056 1.07189L4.86142 1.07189L4.86143 5.07189L3.07056 5.07189L3.07056 1.07189Z" fill="#F0745F" mask="url(#path-1-inside-1_4182_1043)"/>
</svg>
