<svg width="1920" height="167" viewBox="0 0 1920 167" fill="none" xmlns="http://www.w3.org/2000/svg">
<path d="M1882.07 87.5004V16.8314H1871.22V0.300293H1860.39V16.8314H1825.15V43.4086H1787.2V71.9349C1771.79 76.3645 1747.96 87.6333 1741.52 115.034H1697.79V120.226H1676.86V56.6973H1661.17V52.2677H1614.08V56.6973H1598.39V78.845H1577.46V56.6973H1561.77V52.2677H1514.68V56.6973H1498.99V127.57H1478.06V116.053H1457.29V111.624H1478.06V106.308H1336.81V111.624H1357.58V116.053H1336.68V125.798H1311.83V116.053H1249.05V125.798H1232.04V139.973H1213.73V105.422H1205.89V100.993H1187.57V105.422H1158.8V139.973H1150.95V105.422H1143.11V100.993H1124.8V105.422H1096.02V139.973H1088.17V105.422H1080.33V100.993H1062.02V105.422H1033.24V147.946H1017.55V118.711H1004.68L985.583 114.281L966.487 118.711H954.768V129.342H946.921V111.624H941.689V108.966H928.61V111.624H907.684V125.905L868.447 132V147.946H850.136V126.684H800.436V147.946H792.589V108.966H753.351V132H742.888V103.65H753.351V99.2209H737.657V96.5632H690.572V99.2209H659.183V103.65H669.646V147.946H648.719V116.053H656.567V110.738H502.234V116.053H510.082V147.946H491.771V86.8182L431.608 95.6773V105.422H400.218V70.8718H374.06V82.3887H334.823V125.798H319.128V51.3818L222.343 40.7509V132.886H198.801V93.0196H183.106V82.3887H112.48V93.0196H91.5531V48.7241H76.5123V36.3214H90.8992V31.0059H20.2725V36.3214H34.6594V48.7241H0V166.55H1920V87.5004H1882.07ZM1598.26 100.107H1577.33V94.7914H1598.26V100.107ZM1577.33 105.422H1598.26V147.946H1577.33V105.422ZM1598.26 84.1605V89.4759H1577.33V84.1605H1598.26ZM619.945 147.946H612.098V116.053H619.945V147.946ZM583.324 147.946H575.477V116.053H583.324V147.946ZM538.856 116.053H546.703V147.946H538.856V116.053Z" fill="#342D29"/>
</svg>
