<svg width="68" height="70" viewBox="0 0 68 70" fill="none" xmlns="http://www.w3.org/2000/svg">
    <path d="M12.7246 13.0181H64.5963V55.6011C64.5911 58.3653 63.497 61.0146 61.554 62.9674C59.611 64.9202 56.9779 66.017 54.2326 66.017H12.7246V13.0181Z" fill="#E79854"/>
    <path d="M44.6465 66.0171H54.2331C56.9817 66.0171 59.6177 64.9176 61.5613 62.9606C63.5049 61.0036 64.5967 58.3493 64.5967 55.5816V44.3882H44.6465V66.0171Z" fill="#E3836C"/>
    <path fill-rule="evenodd" clip-rule="evenodd" d="M16.003 1.19655e-05C14.9429 1.19655e-05 13.9263 0.424026 13.1768 1.17878C12.4272 1.93353 12.0061 2.95719 12.0061 4.02456V8.37675C12.0061 9.44413 11.585 10.4678 10.8355 11.2225C10.0859 11.9773 9.06928 12.4013 8.00925 12.4013H3.98326C2.92827 12.4052 1.91759 12.8289 1.1716 13.58C0.425609 14.3312 0.00481524 15.3489 0.000976563 16.4112V16.4112C0.00224703 17.4756 0.421753 18.4963 1.16788 19.2504C1.91402 20.0044 2.92615 20.4306 3.98326 20.4357H7.99468C8.52014 20.4332 9.04094 20.5351 9.5272 20.7356C10.0135 20.9362 10.4556 21.2314 10.8283 21.6044C11.201 21.9774 11.4969 22.4208 11.699 22.9092C11.9011 23.3976 12.0055 23.9214 12.0061 24.4505V36.8567C12.0067 37.3854 11.9038 37.909 11.7032 38.3976C11.5025 38.8861 11.2081 39.3301 10.8369 39.7039C10.4656 40.0778 10.0247 40.3742 9.53954 40.5762C9.05433 40.7782 8.53431 40.8819 8.00925 40.8812H3.98326C2.92615 40.8864 1.91402 41.3125 1.16788 42.0666C0.421753 42.8206 0.00224703 43.8413 0.000976563 44.9058V44.9058C0.000969537 45.9706 0.420065 46.9921 1.16647 47.7464C1.91288 48.5007 2.92576 48.9265 3.98326 48.9303H7.99468C8.51974 48.9297 9.03976 49.0334 9.52497 49.2354C10.0102 49.4374 10.451 49.7338 10.8223 50.1077C11.1936 50.4815 11.488 50.9254 11.6886 51.414C11.8892 51.9026 11.9922 52.4262 11.9915 52.9549V65.3562C11.9928 66.4232 12.4143 67.4461 13.1636 68.2005C13.9129 68.955 14.9288 69.3794 15.9884 69.3807V69.3807C16.5151 69.3833 17.0372 69.2811 17.5246 69.0801C18.0121 68.8791 18.4553 68.5831 18.8289 68.2092C19.2025 67.8353 19.4991 67.3908 19.7017 66.9012C19.9043 66.4116 20.0089 65.8866 20.0095 65.3562V52.9696C20.0095 51.9022 20.4306 50.8785 21.1802 50.1238C21.9297 49.369 22.9463 48.945 24.0064 48.945H36.0018C37.0614 48.9463 38.0773 49.3707 38.8266 50.1252C39.5758 50.8797 39.9974 51.9026 39.9986 52.9696V65.3709C39.998 65.8995 40.1009 66.4232 40.3016 66.9117C40.5022 67.4003 40.7966 67.8442 41.1679 68.2181C41.5391 68.5919 41.98 68.8883 42.4652 69.0904C42.9504 69.2924 43.4704 69.3961 43.9955 69.3954V69.3954C44.5204 69.3954 45.0401 69.2913 45.525 69.0891C46.0099 68.8868 46.4506 68.5904 46.8217 68.2166C47.1928 67.8429 47.4872 67.3993 47.6881 66.911C47.889 66.4227 47.9923 65.8994 47.9923 65.3709V52.9696C47.9923 51.903 48.4128 50.8801 49.1613 50.1255C49.9098 49.3709 50.9252 48.9463 51.9843 48.945H63.9895C64.5141 48.9457 65.0337 48.8422 65.5186 48.6404C66.0035 48.4387 66.4442 48.1427 66.8154 47.7694C67.1866 47.3961 67.4811 46.9527 67.682 46.4647C67.8829 45.9767 67.9863 45.4536 67.9863 44.9254V44.9254C67.987 44.3967 67.884 43.873 67.6834 43.3845C67.4827 42.8959 67.1884 42.452 66.8171 42.0781C66.4458 41.7043 66.005 41.4079 65.5198 41.2058C65.0345 41.0038 64.5145 40.9002 63.9895 40.9008H51.9843C50.9252 40.8995 49.9098 40.4749 49.1613 39.7203C48.4128 38.9657 47.9923 37.9428 47.9923 36.8762V24.4505C47.9917 23.9222 48.0945 23.399 48.2948 22.9107C48.4952 22.4225 48.7891 21.9788 49.1599 21.605C49.5306 21.2312 49.9709 20.9347 50.4555 20.7324C50.9402 20.5301 51.4597 20.426 51.9843 20.426H63.9895C65.0495 20.426 66.0661 20.0019 66.8157 19.2472C67.5652 18.4924 67.9863 17.4688 67.9863 16.4014V16.4014C67.987 15.8727 67.884 15.3491 67.6834 14.8605C67.4827 14.3719 67.1884 13.928 66.8171 13.5542C66.4458 13.1803 66.005 12.8839 65.5198 12.6819C65.0345 12.4799 64.5145 12.3762 63.9895 12.3769H51.9843C50.9252 12.3756 49.9098 11.951 49.1613 11.1964C48.4128 10.4418 47.9923 9.41883 47.9923 8.3523V4.00989C47.9885 2.94506 47.5657 1.92516 46.8166 1.17358C46.0674 0.422004 45.053 4.89099e-06 43.9955 1.19655e-05V1.19655e-05C43.4704 -0.000631605 42.9504 0.103027 42.4652 0.305052C41.98 0.507076 41.5391 0.803498 41.1679 1.17734C40.7966 1.55118 40.5022 1.9951 40.3016 2.48367C40.1009 2.97224 39.998 3.49587 39.9986 4.02456V8.37675C39.9974 9.44373 39.5758 10.4666 38.8266 11.2211C38.0773 11.9756 37.0614 12.4 36.0018 12.4013H23.9967C23.4714 12.4 22.9515 12.2945 22.4667 12.0907C21.982 11.887 21.5419 11.589 21.1716 11.2139C20.8013 10.8388 20.508 10.3938 20.3086 9.90446C20.1093 9.41512 20.0076 8.891 20.0095 8.36208V4.00989C20.0057 2.94336 19.5815 1.92199 18.8303 1.17013C18.0791 0.418267 17.0622 -0.00258694 16.003 1.19655e-05V1.19655e-05ZM39.9986 36.8714V24.4505C39.9986 23.3831 39.5775 22.3595 38.828 21.6047C38.0784 20.85 37.0618 20.426 36.0018 20.426H23.9967C23.4724 20.4266 22.9534 20.5312 22.4694 20.7338C21.9853 20.9364 21.5456 21.233 21.1753 21.6067C20.8051 21.9805 20.5116 22.4239 20.3115 22.9119C20.1115 23.3998 20.0089 23.9226 20.0095 24.4505V36.8567C20.0089 37.3854 20.1118 37.909 20.3125 38.3976C20.5131 38.8861 20.8075 39.3301 21.1787 39.7039C21.55 40.0778 21.9909 40.3742 22.4761 40.5762C22.9613 40.7782 23.4813 40.8819 24.0064 40.8812H36.0018C37.0618 40.8812 38.0784 40.4572 38.828 39.7025C39.5775 38.9477 39.9986 37.9241 39.9986 36.8567V36.8714Z" fill="url(#paint0_linear_2815_5374)"/>
    <g style="mix-blend-mode:multiply">
        <g style="mix-blend-mode:multiply">
            <path d="M47.9932 8.3623V11.4284C47.9993 11.6785 48.1003 11.9168 48.2756 12.0942C48.4508 12.2715 48.6869 12.3745 48.9353 12.382H51.922C50.8747 12.364 49.8762 11.9328 49.1414 11.181C48.4066 10.4293 47.9943 9.41708 47.9932 8.3623V8.3623Z" fill="#EEA575"/>
        </g>
        <g style="mix-blend-mode:multiply">
            <path d="M42.0427 4.1416C42.0427 3.34788 42.3559 2.58666 42.9133 2.02541C43.4706 1.46417 44.2266 1.14886 45.0149 1.14886C45.8036 1.14886 46.5601 1.46401 47.1182 2.02512C47.6764 2.58622 47.9906 3.34743 47.9919 4.1416V4.0927C47.9973 3.56419 47.8993 3.03978 47.7034 2.54941C47.5076 2.05904 47.2177 1.61231 46.8504 1.23474C46.4831 0.857164 46.0455 0.556135 45.5627 0.34884C45.0798 0.141544 44.5612 0.0320406 44.0363 0.0265821C42.9763 0.0155582 41.9553 0.429 41.198 1.17595C40.4407 1.92291 40.0091 2.94219 39.9982 4.00957V8.36176C39.997 9.41736 39.584 10.4303 38.8482 11.1822C38.1124 11.9341 37.1127 12.3647 36.0645 12.3814H41.0957C41.3533 12.3814 41.6004 12.2784 41.7825 12.095C41.9647 11.9115 42.067 11.6628 42.067 11.4034L42.0427 4.1416Z" fill="#EEA575"/>
        </g>
        <g style="mix-blend-mode:multiply">
            <path d="M66.8896 15.5501C66.8163 16.3308 66.4528 17.0547 65.8719 17.577C65.2911 18.0993 64.5358 18.3814 63.7572 18.3668H48.9353C48.6854 18.3668 48.4458 18.4668 48.2691 18.6447C48.0924 18.8226 47.9932 19.0639 47.9932 19.3155V24.4501C47.9925 23.9218 48.0953 23.3986 48.2956 22.9103C48.496 22.4221 48.7899 21.9784 49.1607 21.6046C49.5314 21.2308 49.9717 20.9343 50.4564 20.732C50.941 20.5297 51.4605 20.4255 51.9852 20.4255H63.8203C64.8345 20.4429 65.8192 20.0819 66.5849 19.412C67.3506 18.7421 67.8432 17.8107 67.9677 16.7971C68.0198 16.2394 67.9556 15.677 67.7794 15.1457C67.6032 14.6145 67.3189 14.1261 66.9445 13.7119C66.5701 13.2976 66.114 12.9666 65.6053 12.74C65.0966 12.5134 64.5465 12.3963 63.9903 12.396V12.396C64.3885 12.4046 64.7809 12.4938 65.1442 12.6583C65.5074 12.8228 65.834 13.0593 66.1046 13.3536C66.3751 13.6479 66.5841 13.9941 66.7189 14.3715C66.8538 14.7488 66.9118 15.1497 66.8896 15.5501Z" fill="#EEA575"/>
        </g>
        <g style="mix-blend-mode:multiply">
            <path d="M8.00881 12.3867H3.98282C3.76544 12.3861 3.54871 12.4106 3.33691 12.4596C3.54983 12.4175 3.76588 12.3931 3.98282 12.3867H8.00881Z" fill="#EEA575"/>
        </g>
        <g style="mix-blend-mode:multiply">
            <path d="M20.0098 65.0971C20.0487 64.9039 20.0682 64.7073 20.068 64.5103V52.3828C20.0337 52.5766 20.0143 52.7728 20.0098 52.9696V65.0971Z" fill="#EEA575"/>
        </g>
        <g style="mix-blend-mode:multiply">
            <path d="M20.0585 52.3827C20.2002 51.4323 20.6754 50.5644 21.3979 49.9364C22.1205 49.3084 23.0426 48.9619 23.9971 48.9597H36.0022C37.0619 48.961 38.0777 49.3854 38.827 50.1399C39.5763 50.8943 39.9978 51.9172 39.9991 52.9842V65.2095C39.9818 66.2307 40.3403 67.2222 41.0056 67.9933C41.6709 68.7643 42.5959 69.2602 43.6026 69.3856C44.1564 69.438 44.7149 69.3734 45.2425 69.196C45.7701 69.0186 46.2552 68.7323 46.6666 68.3553C47.078 67.9783 47.4067 67.519 47.6317 67.0068C47.8567 66.4946 47.9731 65.9407 47.9734 65.3806V64.52C47.9645 65.3057 47.6496 66.0564 47.0964 66.6107C46.5433 67.1649 45.7961 67.4783 45.0158 67.4834C44.6255 67.4834 44.239 67.406 43.8784 67.2556C43.5178 67.1052 43.1902 66.8847 42.9142 66.6068C42.6382 66.3289 42.4193 65.999 42.2699 65.6359C42.1205 65.2728 42.0437 64.8836 42.0437 64.4906V47.8398C42.0437 47.5804 41.9413 47.3317 41.7592 47.1483C41.577 46.9649 41.33 46.8618 41.0724 46.8618H21.0201C20.7625 46.8618 20.5155 46.9649 20.3333 47.1483C20.1512 47.3317 20.0488 47.5804 20.0488 47.8398L20.0585 52.3827Z" fill="#EEA575"/>
        </g>
        <g style="mix-blend-mode:multiply">
            <path d="M47.9932 36.876V39.9421C47.9993 40.193 48.1011 40.432 48.2774 40.6095C48.4536 40.787 48.6909 40.8894 48.9402 40.8956H51.9657C50.9104 40.8905 49.9 40.4647 49.1555 39.7114C48.4111 38.9581 47.9932 37.9387 47.9932 36.876V36.876Z" fill="#EEA575"/>
        </g>
        <g style="mix-blend-mode:multiply">
            <path d="M20.0586 36.876V39.9421C20.0648 40.193 20.1665 40.432 20.3428 40.6095C20.5191 40.787 20.7564 40.8894 21.0056 40.8956H24.036C22.9798 40.8918 21.9682 40.4665 21.2227 39.7131C20.4772 38.9597 20.0586 37.9395 20.0586 36.876Z" fill="#EEA575"/>
        </g>
        <g style="mix-blend-mode:multiply">
            <path d="M20.0585 24.0495C20.0585 22.2549 21.9234 20.4357 23.9436 20.4357H35.0649C37.2746 20.4357 39.1055 23.1253 39.1055 25.3503V37.7467C39.1045 38.3546 38.9657 38.9542 38.6998 39.5C38.4338 40.0457 38.0477 40.5231 37.5708 40.8959H41.0869C41.3445 40.8959 41.5915 40.7929 41.7737 40.6095C41.9558 40.426 42.0582 40.1773 42.0582 39.9179V19.3306C42.0582 19.0712 41.9558 18.8224 41.7737 18.639C41.5915 18.4556 41.3445 18.3526 41.0869 18.3526H20.9812C20.8577 18.3519 20.7353 18.3758 20.621 18.423C20.5068 18.4701 20.4029 18.5395 20.3153 18.6272C20.2278 18.7149 20.1583 18.8192 20.1109 18.934C20.0635 19.0489 20.0391 19.172 20.0391 19.2963L20.0585 24.0495Z" fill="#EEA575"/>
        </g>
        <g style="mix-blend-mode:multiply">
            <path d="M63.9903 40.9011H63.9369C64.3394 40.9032 64.7373 40.9876 65.1065 41.1491C65.4757 41.3107 65.8084 41.5461 66.0845 41.841C66.3606 42.136 66.5743 42.4843 66.7127 42.865C66.8511 43.2456 66.9113 43.6505 66.8896 44.0553C66.8196 44.839 66.4568 45.5667 65.8744 46.0914C65.2921 46.616 64.5336 46.8985 63.7523 46.8817H48.9353C48.6869 46.8892 48.4508 46.9922 48.2756 47.1695C48.1003 47.3469 47.9993 47.5852 47.9932 47.8353V52.9699C47.9932 51.9034 48.4136 50.8805 49.1621 50.1259C49.9106 49.3712 50.926 48.9467 51.9852 48.9454H63.9903C64.6309 48.9447 65.2621 48.7894 65.8308 48.4924C66.3995 48.1955 66.8892 47.7655 67.2588 47.2386C67.6284 46.7117 67.8672 46.1033 67.955 45.4643C68.0429 44.8253 67.9773 44.1744 67.7637 43.5662C67.4912 42.7801 66.9804 42.0999 66.3033 41.6217C65.6263 41.1435 64.8172 40.8915 63.9903 40.9011V40.9011Z" fill="#EEA575"/>
        </g>
        <g style="mix-blend-mode:multiply">
            <path d="M23.934 12.3821C22.9884 12.3681 22.0786 12.0162 21.3669 11.3891C20.6553 10.7621 20.1881 9.9008 20.0488 8.95898V11.404C20.0488 11.6634 20.1512 11.9122 20.3333 12.0956C20.5155 12.279 20.7625 12.3821 21.0201 12.3821H23.934Z" fill="#EEA575"/>
        </g>
        <g style="mix-blend-mode:multiply">
            <path d="M20.0094 8.36201C20.0141 8.56043 20.0336 8.75821 20.0677 8.95371V4.14185C20.0636 3.86344 20.0211 3.58695 19.9414 3.32031C19.984 3.54771 20.0067 3.77843 20.0094 4.00982V8.36201Z" fill="#EEA575"/>
        </g>
        <g style="mix-blend-mode:multiply">
            <path d="M16.7023 67.4829C15.972 67.3674 15.3078 66.99 14.8321 66.4202C14.3564 65.8505 14.1013 65.1268 14.1138 64.3826V47.854C14.1138 47.5946 14.0115 47.3459 13.8293 47.1625C13.6472 46.979 13.4001 46.876 13.1425 46.876H4.13866C3.35662 46.8927 2.59751 46.6095 2.01502 46.0838C1.43253 45.5581 1.0702 44.8292 1.0014 44.0446C0.980239 43.6378 1.04178 43.231 1.18226 42.8489C1.32273 42.4669 1.53918 42.1178 1.81834 41.823C2.09751 41.5282 2.43351 41.2938 2.80577 41.1343C3.17802 40.9748 3.5787 40.8935 3.98325 40.8954H13.1571C13.4147 40.8954 13.6617 40.7924 13.8439 40.609C14.026 40.4255 14.1284 40.1768 14.1284 39.9174V19.3301C14.1284 19.0707 14.026 18.8219 13.8439 18.6385C13.6617 18.4551 13.4147 18.3521 13.1571 18.3521H4.09495C3.36165 18.3647 2.64817 18.1121 2.0841 17.6401C1.52002 17.1681 1.14276 16.5081 1.02082 15.7799C0.920308 15.0359 1.1012 14.281 1.5276 13.6651C1.95401 13.0491 2.59477 12.617 3.32278 12.4546C2.3574 12.6178 1.48555 13.1334 0.873713 13.9028C0.261875 14.6722 -0.0470863 15.6416 0.00582573 16.6258C0.084922 17.6799 0.560779 18.6637 1.33615 19.3763C2.11152 20.0889 3.12788 20.4764 4.17751 20.4597H8.00924C9.0638 20.4584 10.076 20.8773 10.8249 21.6249C11.5738 22.3725 11.9984 23.3882 12.0061 24.45V36.8562C12.0067 37.3849 11.9038 37.9085 11.7032 38.3971C11.5025 38.8857 11.2081 39.3296 10.8369 39.7034C10.4656 40.0773 10.0247 40.3737 9.53953 40.5757C9.05432 40.7777 8.5343 40.8814 8.00924 40.8807H4.1678C3.15537 40.8642 2.17244 41.2242 1.4072 41.8919C0.641957 42.5596 0.148176 43.488 0.0203952 44.4994C-0.0316471 45.0571 0.0324796 45.6195 0.208673 46.1508C0.384867 46.682 0.669248 47.1704 1.04362 47.5846C1.418 47.9989 1.87412 48.3299 2.38282 48.5565C2.89151 48.7831 3.44158 48.9002 3.99782 48.9005H8.00924C8.5343 48.8999 9.05432 49.0035 9.53953 49.2055C10.0247 49.4076 10.4656 49.704 10.8369 50.0778C11.2081 50.4517 11.5025 50.8956 11.7032 51.3842C11.9038 51.8727 12.0067 52.3964 12.0061 52.9251V65.3263C12.0074 66.3933 12.4289 67.4162 13.1782 68.1707C13.9274 68.9252 14.9433 69.3496 16.003 69.3509V69.3509C17.0592 69.3522 18.0732 68.933 18.8238 68.1846C19.5743 67.4361 20.0005 66.4193 20.0095 65.3557V65.0965C19.8619 65.8426 19.4381 66.5043 18.8239 66.9474C18.2098 67.3905 17.4514 67.5819 16.7023 67.4829V67.4829Z" fill="#EEA575"/>
        </g>
        <g style="mix-blend-mode:multiply">
            <path d="M14.1147 4.25928C14.1015 3.53194 14.3452 2.82353 14.8024 2.26024C15.2595 1.69694 15.9004 1.31534 16.6109 1.1834C17.3262 1.07113 18.0577 1.22653 18.667 1.62026C19.2764 2.01398 19.7214 2.61877 19.9181 3.32038C19.7545 2.39326 19.2732 1.55325 18.558 0.946567C17.8428 0.339882 16.939 0.00492707 16.0038 0V0C14.9438 0 13.9272 0.424014 13.1776 1.17876C12.4281 1.93351 12.007 2.95717 12.007 4.02455V8.37674C12.0058 9.43235 11.5928 10.4452 10.857 11.1971C10.1212 11.949 9.12145 12.3797 8.07324 12.3964H13.1531C13.4107 12.3964 13.6577 12.2934 13.8399 12.1099C14.022 11.9265 14.1244 11.6778 14.1244 11.4184L14.1147 4.25928Z" fill="#EEA575"/>
        </g>
    </g>
    <path d="M35.769 40.8573C39.4972 40.8573 42.5195 36.2509 42.5195 30.5686C42.5195 24.8862 39.4972 20.2798 35.769 20.2798C32.0408 20.2798 29.0186 24.8862 29.0186 30.5686C29.0186 36.2509 32.0408 40.8573 35.769 40.8573Z" fill="white"/>
    <path d="M37.6872 37.1312C40.1064 37.1312 42.0677 34.1427 42.0677 30.4562C42.0677 26.7697 40.1064 23.7812 37.6872 23.7812C35.2679 23.7812 33.3066 26.7697 33.3066 30.4562C33.3066 34.1427 35.2679 37.1312 37.6872 37.1312Z" fill="#29151A"/>
    <path d="M52.3004 40.7889C56.0178 40.7889 59.0314 36.1978 59.0314 30.5343C59.0314 24.8709 56.0178 20.2798 52.3004 20.2798C48.5829 20.2798 45.5693 24.8709 45.5693 30.5343C45.5693 36.1978 48.5829 40.7889 52.3004 40.7889Z" fill="white"/>
    <path d="M54.2087 37.0672C56.62 37.0672 58.5747 34.0896 58.5747 30.4166C58.5747 26.7437 56.62 23.7661 54.2087 23.7661C51.7975 23.7661 49.8428 26.7437 49.8428 30.4166C49.8428 34.0896 51.7975 37.0672 54.2087 37.0672Z" fill="#29151A"/>
    <defs>
        <linearGradient id="paint0_linear_2815_5374" x1="4.94969" y1="59.9135" x2="59.2725" y2="5.96456" gradientUnits="userSpaceOnUse">
            <stop stop-color="#F0C25B"/>
            <stop offset="0.45" stop-color="#F0C35D"/>
            <stop offset="0.63" stop-color="#F1C564"/>
            <stop offset="0.76" stop-color="#F3C970"/>
            <stop offset="0.87" stop-color="#F5CE82"/>
            <stop offset="0.97" stop-color="#F8D698"/>
            <stop offset="1" stop-color="#F9D9A2"/>
        </linearGradient>
    </defs>
</svg>
