<svg width="216" height="207" viewBox="0 0 216 207" fill="none" xmlns="http://www.w3.org/2000/svg">
<path opacity="0.9" d="M75.4312 7.1132C34.8372 21.8785 5.47926 61.0195 0.710333 103.729C-3.94227 146.066 14.6682 198.129 44.5845 206.084C66.568 211.962 92.1573 180.775 120.515 189.965C125.425 190.45 130.368 189.454 134.711 187.107C139.054 184.759 142.6 181.166 144.895 176.786C152.548 161.601 210.776 132.047 215.172 99.6472C218.173 77.5109 212.264 68.6005 209.38 58.9202C199.074 24.2345 158.573 9.14252 147.709 6.20345C136.031 2.98447 107.651 -4.54978 75.4312 7.1132Z" fill="url(#paint0_linear_687_1155)"/>
<defs>
<linearGradient id="paint0_linear_687_1155" x1="108" y1="0.827148" x2="108" y2="206.827" gradientUnits="userSpaceOnUse">
<stop stop-color="#D9620F"/>
<stop offset="1" stop-color="#E87D00" stop-opacity="0.45"/>
</linearGradient>
</defs>
</svg>
