<svg width="88" height="686" viewBox="0 0 88 686" fill="none" xmlns="http://www.w3.org/2000/svg">
<g filter="url(#filter0_d_686_20)">
<path d="M35.2411 301.879C9.67164 300.03 8.86243 235.482 11.8277 199.594C14.7929 163.707 19.5224 116.409 31.9917 66.5274C41.8613 27.0456 63.7733 7.05868 72.8401 1.17574C75.2284 -0.373938 77.5257 0.695774 77.5257 0.695774L72.5209 660.491C72.5209 660.491 46.0253 671.581 32.7783 660.491C32.7783 645.394 35.2411 301.879 35.2411 301.879Z" fill="#E9E9E9"/>
</g>
<path d="M73.3697 2.01095L77.9997 1.17578L72.9356 660.134C65.2673 668.488 58.5781 592.71 65.2671 479.618C73.9473 332.86 70.1283 106.77 73.3697 2.01095Z" fill="white"/>
<path d="M34.1421 301.301H75.6458C75.6458 301.301 75.85 309.9 75.42 309.9C74.99 309.9 35.419 309.9 35.419 309.9L34.1421 301.301Z" fill="#C4C4C4"/>
<defs>
<filter id="filter0_d_686_20" x="0.634766" y="0.335938" width="86.8911" height="685.084" filterUnits="userSpaceOnUse" color-interpolation-filters="sRGB">
<feFlood flood-opacity="0" result="BackgroundImageFix"/>
<feColorMatrix in="SourceAlpha" type="matrix" values="0 0 0 0 0 0 0 0 0 0 0 0 0 0 0 0 0 0 127 0" result="hardAlpha"/>
<feOffset dy="10"/>
<feGaussianBlur stdDeviation="5"/>
<feComposite in2="hardAlpha" operator="out"/>
<feColorMatrix type="matrix" values="0 0 0 0 0 0 0 0 0 0 0 0 0 0 0 0 0 0 0.25 0"/>
<feBlend mode="normal" in2="BackgroundImageFix" result="effect1_dropShadow_686_20"/>
<feBlend mode="normal" in="SourceGraphic" in2="effect1_dropShadow_686_20" result="shape"/>
</filter>
</defs>
</svg>
