<svg width="1084" height="1083" viewBox="0 0 1084 1083" fill="none" xmlns="http://www.w3.org/2000/svg">
<path d="M542 974.303C781.27 974.303 975.237 780.337 975.237 541.067C975.237 301.797 781.27 107.83 542 107.83C302.73 107.83 108.763 301.797 108.763 541.067C108.763 780.337 302.73 974.303 542 974.303Z" fill="#FFE4AE"/>
<path d="M541.999 953.674C769.876 953.674 954.606 768.943 954.606 541.067C954.606 313.191 769.876 128.461 541.999 128.461C314.123 128.461 129.393 313.191 129.393 541.067C129.393 768.943 314.123 953.674 541.999 953.674Z" fill="#FEDB96"/>
<path d="M703.285 161.286C628.173 129.387 545.287 120.477 465.111 135.684C384.934 150.892 311.068 189.532 252.852 246.72C194.637 303.908 154.687 377.075 138.054 456.967C121.422 536.86 128.854 619.891 159.41 695.56C189.967 771.229 242.276 836.138 309.722 882.078C377.168 928.018 456.723 952.927 538.326 953.653C619.928 954.38 699.914 930.892 768.167 886.16C836.421 841.429 889.878 777.462 921.777 702.349C964.553 601.626 965.564 488.035 924.589 386.566C883.614 285.097 804.009 204.062 703.285 161.286ZM793.129 846.943C729.674 903.01 650 910.582 551.142 919.982C478.475 926.889 442.153 930.347 404.873 919.502C286.786 884.789 228.942 764.629 192.362 688.606C159.598 620.618 135.793 571.117 139.69 502.169C146.289 383.517 229.414 301.848 276.637 255.503C311.007 221.742 352.378 181.063 421.494 155.867C437.664 149.986 565.832 105.545 694.206 169.141C759.872 201.679 793.753 246.719 855.141 328.319C908.86 399.742 935.744 435.394 942.413 488.433C949.996 548.556 925.711 600.329 877.251 703.948C840.67 781.905 822.398 820.906 793.129 846.943Z" fill="#FFBC5E"/>
</svg>
