<svg width="254" height="261" viewBox="0 0 254 261" fill="none" xmlns="http://www.w3.org/2000/svg">
<path opacity="0.7" d="M176.023 0C221.317 9.01109 253.5 46.9966 253.99 88.4967C254.521 134.431 233.425 162.7 200.915 169.606C178.35 174.387 140.744 152.737 117.566 162.136C99.31 169.554 90.9064 174.25 89.5791 196.379C88.3743 216.445 105.405 224.986 100.075 241.332C96.3384 252.857 83.4325 262.42 73.0995 260.826C57.4776 258.435 38.6087 244.336 38.6087 220.327C38.6087 199.444 57.9837 195.153 57.0284 169.606C56.4937 155.307 27.5273 157.187 0 134.015" fill="url(#paint0_linear_687_1154)" fill-opacity="0.6"/>
<defs>
<linearGradient id="paint0_linear_687_1154" x1="127" y1="0" x2="127" y2="261" gradientUnits="userSpaceOnUse">
<stop stop-color="#FFD338" stop-opacity="0.74"/>
<stop offset="1" stop-color="#BC5231"/>
</linearGradient>
</defs>
</svg>
