<svg width="86" height="93" viewBox="0 0 86 93" fill="none" xmlns="http://www.w3.org/2000/svg">
<g filter="url(#filter0_d_763_9)">
<path d="M74.7238 72.1384C73.9444 72.6621 64.4142 45.5382 56 38C50.314 29.5381 16.3352 13.653 17.1146 13.1293C14.5034 6.46141 50.9525 28.1334 57.9999 35.5001C71.2063 49.3047 78.9505 76.8959 74.7238 72.1384Z" fill="#D99A61"/>
</g>
<path d="M2.42815 4.59581C3.69749 4.41561 6.37887 5.66217 7.5609 6.30797C8.00641 6.54269 11.1067 8.24559 11.726 9.71978C12.3454 11.194 9.50084 10.4262 7.60449 9.91433C5.70814 9.40248 1.68821 7.33718 0.98666 6.16755C0.285107 4.99793 0.841476 4.82105 2.42815 4.59581Z" fill="#D99A61"/>
<defs>
<filter id="filter0_d_763_9" x="6.98096" y="11.8721" width="78.9009" height="80.8115" filterUnits="userSpaceOnUse" color-interpolation-filters="sRGB">
<feFlood flood-opacity="0" result="BackgroundImageFix"/>
<feColorMatrix in="SourceAlpha" type="matrix" values="0 0 0 0 0 0 0 0 0 0 0 0 0 0 0 0 0 0 127 0" result="hardAlpha"/>
<feOffset dy="10"/>
<feGaussianBlur stdDeviation="5"/>
<feComposite in2="hardAlpha" operator="out"/>
<feColorMatrix type="matrix" values="0 0 0 0 0.7875 0 0 0 0 0.403594 0 0 0 0 0.0492188 0 0 0 1 0"/>
<feBlend mode="normal" in2="BackgroundImageFix" result="effect1_dropShadow_763_9"/>
<feBlend mode="normal" in="SourceGraphic" in2="effect1_dropShadow_763_9" result="shape"/>
</filter>
</defs>
</svg>
