<svg width="45" height="45" viewBox="0 0 45 45" fill="none" xmlns="http://www.w3.org/2000/svg">
<path fill-rule="evenodd" clip-rule="evenodd" d="M5 0C2.23858 0 0 2.23858 0 5V40C0 42.7614 2.23858 45 5 45H40C42.7614 45 45 42.7614 45 40V5C45 2.23858 42.7614 0 40 0H5ZM19.9064 17L16.5984 29H14.0083L11.9532 21.4761L9.89802 29H7.30796L4 17H6.7449L8.7156 24.8479L10.6863 17H13.3467L15.3034 24.8184L17.2881 17H19.9064ZM21.1198 17H29.6501V19.3264H23.6817V21.7706H29.1574V24.0969H23.6817V26.6736H29.7768V29H21.1198V17ZM36.4815 17H31.4984V29H36.9038C37.7483 29 38.4803 28.8528 39.0997 28.5583C39.719 28.2638 40.1883 27.8417 40.5073 27.292C40.8358 26.7423 41 26.0994 41 25.3632C41 24.7742 40.8217 24.2344 40.4651 23.7436C40.1179 23.2429 39.6721 22.8994 39.1278 22.7129C39.5126 22.5656 39.8317 22.2859 40.085 21.8736C40.3384 21.4515 40.4651 21.0196 40.4651 20.5779C40.4651 19.4687 40.1132 18.5951 39.4094 17.9571C38.7149 17.319 37.739 17 36.4815 17ZM37.495 21.535C37.2322 21.7509 36.8568 21.8589 36.3689 21.8589H34.0603V19.2822H36.3689C36.8568 19.2822 37.2322 19.3951 37.495 19.6209C37.7671 19.8368 37.9032 20.1558 37.9032 20.5779C37.9032 20.9902 37.7671 21.3092 37.495 21.535ZM38.0017 26.3644C37.7108 26.6 37.3073 26.7178 36.7911 26.7178H34.0603V24.0086H36.7911C37.3073 24.0086 37.7108 24.1264 38.0017 24.362C38.2926 24.5975 38.4381 24.9313 38.4381 25.3632C38.4381 25.7951 38.2926 26.1288 38.0017 26.3644Z" fill="black"/>
</svg>
