<svg width="1920" height="366" viewBox="0 0 1920 366" fill="none" xmlns="http://www.w3.org/2000/svg">
<path d="M1825.83 28.7732V11.6432H1841.53V0H1734.28V11.6432H1749.97V48.4211L1729.05 53.8497V208.122H1713.35V109.155H1634.88V208.122H1629.65V318.732H1606.1V152.817L1477.93 128.075V318.732H1446.54V177.558H1423V165.915H1381.14V177.558H1357.6V247.418H1328.83V177.558H1239.89V288.169H1184.96V240.141L1127.41 246.966V234.319H1004.47V261.564L988.774 263.427V318.732H952.153V256.15H925.995V245.962H839.673V256.15H829.21V318.732H818.747V234.319H769.046V285.258H761.199V228.497H711.499V318.732H674.877V243.051H659.183V235.774H667.03V228.497H567.629V235.774H575.477V243.051H559.782V264.882H502.234V200.845L494.387 199.622V187.746H476.076V196.77L436.839 190.657V318.732H426.376V200.845L418.529 199.622V187.746H400.218V196.77L360.981 190.657V318.732H350.518V200.845L342.67 199.622V187.746H324.36V196.77L285.123 190.657V132.441H277.275V126.62H269.428V114.976L232.807 120.798V126.62H201.417V132.441H183.106V181.473L164.796 186.96V97.5116H149.101V85.8684H133.406V77.136H114.808L86.3215 69.6262V59.6713H78.4741V69.6262L49.988 77.136H31.3896V85.8684H15.6948V97.5116H0V355.117H1.3079V365.305H1729.05H1918.69H1920V4.36619L1825.83 28.7732Z" fill="#342D29" fill-opacity="0.2"/>
</svg>
