<svg width="325" height="465" viewBox="0 0 325 465" fill="none" xmlns="http://www.w3.org/2000/svg">
<path d="M201.34 310.586H169.34V341.586H201.34V310.586Z" fill="#F1C564"/>
<path d="M192.84 332.586H177.84V428.586H192.84V332.586Z" fill="#F1C564"/>
<path d="M73.3398 400.586H58.3398V426.586H73.3398V400.586Z" fill="#F1C564"/>
<path d="M181.881 376.409L59.3262 400.498L62.0436 414.324L184.599 390.235L181.881 376.409Z" fill="#F1C564"/>
<path d="M312.34 400.586H297.34V426.586H312.34V400.586Z" fill="#F1C564"/>
<path d="M188.778 376.402L186.06 390.228L308.615 414.316L311.333 400.491L188.778 376.402Z" fill="#F1C564"/>
<path d="M64.9597 464.625C75.9999 464.625 84.9497 455.676 84.9497 444.635C84.9497 433.595 75.9999 424.646 64.9597 424.646C53.9196 424.646 44.9697 433.595 44.9697 444.635C44.9697 455.676 53.9196 464.625 64.9597 464.625Z" fill="#723532"/>
<path d="M185.34 464.625C196.38 464.625 205.33 455.676 205.33 444.635C205.33 433.595 196.38 424.646 185.34 424.646C174.3 424.646 165.35 433.595 165.35 444.635C165.35 455.676 174.3 464.625 185.34 464.625Z" fill="#723532"/>
<path d="M304.96 464.625C316 464.625 324.95 455.676 324.95 444.635C324.95 433.595 316 424.646 304.96 424.646C293.92 424.646 284.97 433.595 284.97 444.635C284.97 455.676 293.92 464.625 304.96 464.625Z" fill="#723532"/>
<path d="M40.7764 1.81173L16.7607 6.23677C11.3293 7.23754 7.73756 12.4519 8.73833 17.8833L49.9916 241.774C50.9924 247.206 56.2067 250.798 61.6381 249.797L85.6539 245.372C91.0853 244.371 94.677 239.157 93.6763 233.725L52.4229 9.83412C51.4222 4.40271 46.2079 0.810957 40.7764 1.81173Z" fill="#FFF1CF"/>
<path d="M293.96 277.586V298.586C293.96 301.238 292.906 303.782 291.031 305.657C289.156 307.532 286.612 308.586 283.96 308.586H92.96C90.3078 308.586 87.7643 307.532 85.8889 305.657C84.0136 303.782 82.96 301.238 82.96 298.586V277.586C82.96 272.066 87.43 267.586 93.96 267.586H284.96C289.48 267.586 293.96 272.066 293.96 277.586Z" fill="#FFF1CF"/>
<path d="M270.96 177.586H124.96C119.437 177.586 114.96 182.063 114.96 187.586V198.586C114.96 204.109 119.437 208.586 124.96 208.586H270.96C276.483 208.586 280.96 204.109 280.96 198.586V187.586C280.96 182.063 276.483 177.586 270.96 177.586Z" fill="#FFF1CF"/>
<path d="M53.96 257.586C56.96 270.586 53.96 278.586 50.96 287.586C48.11 296.136 61.54 316.586 69.96 318.586C78.38 320.586 106.96 312.586 121.04 309.586C132.3 307.186 239.04 308.586 290.96 309.586V318.586H121.08C100.08 318.586 70.58 332.586 61.58 325.586C52.58 318.586 37.87 296.976 41 287.586C45 275.586 44 271.716 43 266.586C33 212.586 0 40.9562 0 40.9562L13.48 38.4062L53.96 257.586Z" fill="#F1C564"/>
<path d="M272.96 202.086C272.96 203.81 272.275 205.463 271.056 206.682C269.837 207.901 268.184 208.586 266.46 208.586H135.46C133.736 208.586 132.083 207.901 130.864 206.682C129.645 205.463 128.96 203.81 128.96 202.086V202.086C128.96 200.362 129.645 198.709 130.864 197.49C132.083 196.271 133.736 195.586 135.46 195.586H266.46C268.184 195.586 269.837 196.271 271.056 197.49C272.275 198.709 272.96 200.362 272.96 202.086V202.086Z" fill="#F1C564"/>
<path d="M218.46 316.586C274.06 316.986 276.63 242.086 270.96 204.586H260.46C272.86 292.586 228.96 312.256 205.46 311.086L218.46 316.586Z" fill="#F1C564"/>
</svg>
