<svg width="445" height="370" viewBox="0 0 445 370" fill="none" xmlns="http://www.w3.org/2000/svg">
<path d="M445 119.604H0V142.604H445V119.604Z" fill="#723532"/>
<path d="M72 142.604H49V369.604H72V142.604Z" fill="#723532"/>
<path d="M313 109.604H166V119.604H313V109.604Z" fill="#EBE4D1"/>
<path d="M380.385 0.000118114L302.599 112.338L313.27 119.727L391.056 7.38939L380.385 0.000118114Z" fill="#EBE4D1"/>
<path d="M385.053 3.63098L307.267 115.969L308.599 116.891L386.385 4.55321L385.053 3.63098Z" fill="#907A78"/>
<path d="M132.4 86.4239C130.133 86.4318 127.919 87.1119 126.039 88.3782C124.158 89.6444 122.696 91.44 121.836 93.5376C120.976 95.6352 120.758 97.9408 121.209 100.162C121.66 102.384 122.759 104.422 124.368 106.019C125.978 107.616 128.024 108.699 130.25 109.133C132.475 109.566 134.779 109.329 136.869 108.453C138.96 107.577 140.744 106.1 141.996 104.21C143.247 102.32 143.91 100.101 143.9 97.8339C143.887 94.7962 142.668 91.8881 140.511 89.7486C138.355 87.6091 135.438 86.4133 132.4 86.4239V86.4239ZM132.48 106.064C130.86 106.072 129.273 105.599 127.922 104.705C126.571 103.811 125.515 102.537 124.888 101.043C124.261 99.5487 124.091 97.9023 124.4 96.3118C124.709 94.7213 125.483 93.2581 126.624 92.1076C127.765 90.957 129.221 90.1706 130.809 89.848C132.397 89.5253 134.045 89.6809 135.544 90.295C137.043 90.9091 138.327 91.9541 139.232 93.2979C140.137 94.6416 140.624 96.2236 140.63 97.8439C140.636 98.9193 140.431 99.9854 140.024 100.981C139.618 101.977 139.019 102.882 138.262 103.646C137.505 104.41 136.604 105.017 135.612 105.431C134.62 105.846 133.555 106.061 132.48 106.064V106.064Z" fill="#CEC5C2"/>
<path d="M94.1199 76.7335C94.1021 76.4602 94.1407 76.186 94.2332 75.9282C94.3257 75.6703 94.4701 75.4342 94.6577 75.2345C94.8452 75.0348 95.0718 74.8757 95.3233 74.7672C95.5749 74.6586 95.846 74.6029 96.1199 74.6035H133.2C133.472 74.6031 133.742 74.6583 133.992 74.7656C134.242 74.8729 134.467 75.0301 134.654 75.2276C134.842 75.4251 134.987 75.6588 135.081 75.9143C135.174 76.1698 135.215 76.4418 135.2 76.7135L132.97 117.714C132.942 118.225 132.719 118.706 132.347 119.057C131.975 119.409 131.482 119.604 130.97 119.604H98.7399C98.2313 119.605 97.7414 119.412 97.3698 119.064C96.9983 118.717 96.773 118.241 96.7399 117.734L94.1199 76.7335Z" fill="#CEC5C2"/>
<path d="M94.1199 76.7335C94.1021 76.4602 94.1407 76.186 94.2332 75.9282C94.3257 75.6703 94.4701 75.4342 94.6577 75.2345C94.8452 75.0348 95.0718 74.8757 95.3233 74.7672C95.5749 74.6586 95.846 74.6029 96.1199 74.6035H133.2C133.472 74.6031 133.742 74.6583 133.992 74.7656C134.242 74.8729 134.467 75.0301 134.654 75.2276C134.842 75.4251 134.987 75.6588 135.081 75.9143C135.174 76.1698 135.215 76.4418 135.2 76.7135L132.97 117.714C132.942 118.225 132.719 118.706 132.347 119.057C131.975 119.409 131.482 119.604 130.97 119.604H98.7399C98.2313 119.605 97.7414 119.412 97.3698 119.064C96.9983 118.717 96.773 118.241 96.7399 117.734L94.1199 76.7335Z" fill="url(#paint0_linear_1865_20)"/>
<path d="M294 112.604H276V116.604H294V112.604Z" fill="#907A78"/>
<path d="M270 112.604H252V116.604H270V112.604Z" fill="#48211F"/>
<path d="M300.5 117.974C301.881 117.974 303 116.854 303 115.474C303 114.093 301.881 112.974 300.5 112.974C299.119 112.974 298 114.093 298 115.474C298 116.854 299.119 117.974 300.5 117.974Z" fill="#635750"/>
<defs>
<linearGradient id="paint0_linear_1865_20" x1="94.13" y1="97.1035" x2="135.2" y2="97.1035" gradientUnits="userSpaceOnUse">
<stop offset="0.06" stop-opacity="0.4"/>
<stop offset="0.84" stop-opacity="0"/>
</linearGradient>
</defs>
</svg>
