<svg width="30" height="218" viewBox="0 0 30 218" fill="none" xmlns="http://www.w3.org/2000/svg">
<path d="M13.29 1.37012C16.12 8.20012 21.59 28.9701 14.79 41.3701C6.29004 56.8701 6.29004 47.3701 14.79 60.8701C20.73 70.3101 18.45 84.2501 15.89 92.2901C15.1608 94.5725 14.7898 96.9541 14.79 99.3501V173.5" stroke="#48211F" stroke-width="3" stroke-miterlimit="10"/>
<path d="M28.25 186.5C28.25 179.044 22.2058 173 14.75 173C7.29416 173 1.25 179.044 1.25 186.5V204.5C1.25 211.956 7.29416 218 14.75 218C22.2058 218 28.25 211.956 28.25 204.5V186.5Z" fill="#EBE4D1"/>
<path d="M15.25 173H14.25V193H15.25V173Z" fill="#342D29"/>
<path d="M15.96 179.21C15.96 178.542 15.4183 178 14.7501 178C14.0818 178 13.54 178.542 13.54 179.21V186.79C13.54 187.458 14.0818 188 14.7501 188C15.4183 188 15.96 187.458 15.96 186.79V179.21Z" fill="#342D29"/>
<path d="M0 192.9H29.5" stroke="#342D29" stroke-width="0.5" stroke-miterlimit="10"/>
</svg>
