<svg width="32" height="32" viewBox="0 0 32 32" fill="none" xmlns="http://www.w3.org/2000/svg">
<g id="volunteer_activism_FILL0_wght500_GRAD0_opsz48 1" clip-path="url(#clip0_4163_714)">
<path id="Vector" d="M23.0924 16.1053C21.8947 15.0504 20.757 14.0178 19.6791 13.015C18.6012 12.0121 17.658 11.0315 16.8421 10.0807C16.0337 9.12979 15.3825 8.20121 14.9034 7.30235C14.4243 6.40348 14.1773 5.53433 14.1773 4.68747C14.1773 3.36517 14.6339 2.2583 15.5396 1.35201C16.4454 0.445718 17.5682 0 18.9081 0C19.6416 0 20.3752 0.200573 21.1088 0.594291C21.8423 0.988008 22.5011 1.52287 23.0849 2.19145C23.6688 1.52287 24.3275 0.988008 25.0611 0.594291C25.7946 0.200573 26.5282 0 27.2618 0C28.6016 0 29.7244 0.453147 30.6302 1.35201C31.5359 2.25088 31.9925 3.36517 31.9925 4.68747C31.9925 5.53433 31.753 6.40348 31.2664 7.29492C30.7874 8.19378 30.1361 9.11493 29.3277 10.0732C28.5193 11.0241 27.5687 12.0121 26.4833 13.0224C25.3979 14.0327 24.2676 15.0653 23.0774 16.1127L23.0924 16.1053ZM23.0924 12.7475C24.7242 11.2767 26.2138 9.81322 27.5462 8.36464C28.8786 6.91606 29.5523 5.69033 29.5523 4.68004C29.5523 4.01889 29.3427 3.48403 28.916 3.0606C28.4894 2.63717 27.9429 2.42916 27.2767 2.42916C26.865 2.42916 26.4533 2.52574 26.0491 2.72631C25.6449 2.92688 25.2332 3.29088 24.814 3.82575L23.0924 5.92062L21.3633 3.82575C20.9516 3.29831 20.5399 2.93431 20.1282 2.73374C19.7165 2.53316 19.3123 2.43659 18.9006 2.43659C18.2269 2.43659 17.6805 2.64459 17.2613 3.06803C16.8421 3.49146 16.6325 4.03375 16.6325 4.6949C16.6325 5.69033 17.2987 6.91606 18.6386 8.37207C19.971 9.82065 21.4606 11.2841 23.0924 12.7624V12.7475ZM18.6835 30.9477L8.36117 28.0134V30.0934H0V15.0504H9.87322C11.1532 15.0504 12.4182 15.2807 13.6159 15.7264L21.3857 18.631C22.0968 18.891 22.6957 19.3144 23.1822 19.9013C23.6688 20.4882 23.9158 21.3276 23.9158 22.4196H27.9804C29.0807 22.4196 30.0014 22.7836 30.7425 23.5042C31.4835 24.2248 31.8503 25.2425 31.8503 26.5425C31.8503 27.2111 31.4087 27.7979 30.7649 27.9985L21.0938 30.9254C20.3078 31.1631 19.477 31.1705 18.6835 30.9477ZM2.44772 27.6568H5.86105V17.4796H2.44772V27.6568ZM18.5188 28.4145C19.3123 28.6448 20.1581 28.6448 20.9516 28.3997L29.1256 25.9259C29.1256 25.9259 29.3352 25.8739 29.3502 25.6882C29.3651 25.4876 28.9684 25.0716 28.7439 24.9008C28.5193 24.7299 28.2573 24.6408 27.9654 24.6408H20.2105C19.477 24.6408 18.7883 24.5888 18.1371 24.4922C17.4858 24.3956 16.887 24.2619 16.3331 24.0911L14.3719 23.4893C13.7881 23.3111 13.4812 22.6796 13.6982 22.1076L13.7581 21.9442C13.9602 21.4168 14.5441 21.1419 15.083 21.3202L16.8122 21.8848C17.4634 22.0853 18.0622 22.2265 18.6236 22.3008C19.185 22.375 20.0758 22.4122 21.3034 22.4122C21.3034 22.115 21.2435 21.8253 21.1312 21.5356C21.0189 21.2533 20.8243 21.0453 20.5474 20.919L13.1967 18.1482C11.9916 17.695 10.7191 17.4647 9.43158 17.4647H8.33871V25.4431L18.5039 28.4071L18.5188 28.4145Z" fill="#323232"/>
<path id="Vector_2" d="M27.5466 8.36464C26.2142 9.81322 24.7246 11.2767 23.0928 12.7475V12.7624C21.461 11.2841 19.9714 9.82065 18.639 8.37207C17.2991 6.91606 16.6329 5.69033 16.6329 4.6949C16.6329 4.03375 16.8425 3.49146 17.2617 3.06803C17.6809 2.64459 18.2273 2.43659 18.901 2.43659C19.3127 2.43659 19.7169 2.53316 20.1286 2.73374C20.5403 2.93431 20.952 3.29831 21.3637 3.82575L23.0928 5.92062L24.8145 3.82575C25.2336 3.29088 25.6453 2.92688 26.0495 2.72631C26.4538 2.52574 26.8655 2.42916 27.2771 2.42916C27.9433 2.42916 28.4898 2.63717 28.9164 3.0606C29.3431 3.48403 29.5527 4.01889 29.5527 4.68004C29.5527 5.69033 28.879 6.91606 27.5466 8.36464Z" fill="#F0745F"/>
</g>
<defs>
<clipPath id="clip0_4163_714">
<rect width="32" height="31.1111" fill="white"/>
</clipPath>
</defs>
</svg>
